<?xml version="1.0" encoding="UTF-8" standalone="no"?>
<!DOCTYPE svg PUBLIC "-//W3C//DTD SVG 1.1//EN"
 "http://www.w3.org/Graphics/SVG/1.1/DTD/svg11.dtd">
<!-- Generated by graphviz version 14.1.4 (20260321.0153)
 -->
<!-- Title: ER Pages: 1 -->
<svg width="1326pt" height="1387pt"
 viewBox="0.00 0.00 1326.00 1387.00" xmlns="http://www.w3.org/2000/svg" xmlns:xlink="http://www.w3.org/1999/xlink">
<g id="graph0" class="graph" transform="scale(1 1) rotate(0) translate(25.2 1362.21)">
<title>ER</title>
<polygon fill="white" stroke="none" points="-25.2,25.2 -25.2,-1362.21 1301.09,-1362.21 1301.09,25.2 -25.2,25.2"/>
<text xml:space="preserve" text-anchor="middle" x="637.94" y="-1319.71" font-family="Times New Roman,serif" font-size="14.00">activity&#45;service</text>
<!-- vol_activity -->
<g id="node1" class="node">
<title>vol_activity</title>
<polygon fill="#24415f" stroke="none" points="538.64,-538.26 538.64,-568.01 862.64,-568.01 862.64,-538.26 538.64,-538.26"/>
<polygon fill="none" stroke="#6a7a89" points="538.64,-538.26 538.64,-568.01 862.64,-568.01 862.64,-538.26 538.64,-538.26"/>
<text xml:space="preserve" text-anchor="start" x="663.89" y="-548.71" font-family="Arial" font-weight="bold" font-size="14.00" fill="white">vol_activity</text>
<polygon fill="none" stroke="#6a7a89" points="538.64,-508.51 538.64,-538.26 699.64,-538.26 699.64,-508.51 538.64,-508.51"/>
<text xml:space="preserve" text-anchor="start" x="545.64" y="-518.96" font-family="Arial" font-weight="bold" font-size="14.00">id</text>
<polygon fill="none" stroke="#6a7a89" points="699.64,-508.51 699.64,-538.26 810.39,-538.26 810.39,-508.51 699.64,-508.51"/>
<text xml:space="preserve" text-anchor="start" x="706.64" y="-518.51" font-family="Arial" font-size="14.00">BIGINT</text>
<polygon fill="none" stroke="#6a7a89" points="810.39,-508.51 810.39,-538.26 862.64,-538.26 862.64,-508.51 810.39,-508.51"/>
<text xml:space="preserve" text-anchor="start" x="817.39" y="-519.63" font-family="Arial" font-size="10.00">PK AI</text>
<polygon fill="none" stroke="#6a7a89" points="538.64,-478.76 538.64,-508.51 699.64,-508.51 699.64,-478.76 538.64,-478.76"/>
<text xml:space="preserve" text-anchor="start" x="545.64" y="-489.21" font-family="Arial" font-weight="bold" font-size="14.00">title</text>
<polygon fill="none" stroke="#6a7a89" points="699.64,-478.76 699.64,-508.51 810.39,-508.51 810.39,-478.76 699.64,-478.76"/>
<text xml:space="preserve" text-anchor="start" x="706.64" y="-488.76" font-family="Arial" font-size="14.00">VARCHAR(200)</text>
<polygon fill="none" stroke="#6a7a89" points="810.39,-478.76 810.39,-508.51 862.64,-508.51 862.64,-478.76 810.39,-478.76"/>
<text xml:space="preserve" text-anchor="start" x="817.39" y="-489.88" font-family="Arial" font-size="10.00">NN</text>
<polygon fill="none" stroke="#6a7a89" points="538.64,-449.01 538.64,-478.76 699.64,-478.76 699.64,-449.01 538.64,-449.01"/>
<text xml:space="preserve" text-anchor="start" x="545.64" y="-459.46" font-family="Arial" font-weight="bold" font-size="14.00">description</text>
<polygon fill="none" stroke="#6a7a89" points="699.64,-449.01 699.64,-478.76 810.39,-478.76 810.39,-449.01 699.64,-449.01"/>
<text xml:space="preserve" text-anchor="start" x="706.64" y="-459.01" font-family="Arial" font-size="14.00">TEXT</text>
<polygon fill="none" stroke="#6a7a89" points="810.39,-449.01 810.39,-478.76 862.64,-478.76 862.64,-449.01 810.39,-449.01"/>
<text xml:space="preserve" text-anchor="start" x="817.39" y="-460.13" font-family="Arial" font-size="10.00"> </text>
<polygon fill="none" stroke="#6a7a89" points="538.64,-419.26 538.64,-449.01 699.64,-449.01 699.64,-419.26 538.64,-419.26"/>
<text xml:space="preserve" text-anchor="start" x="545.64" y="-429.71" font-family="Arial" font-weight="bold" font-size="14.00">image_key</text>
<polygon fill="none" stroke="#6a7a89" points="699.64,-419.26 699.64,-449.01 810.39,-449.01 810.39,-419.26 699.64,-419.26"/>
<text xml:space="preserve" text-anchor="start" x="706.64" y="-429.26" font-family="Arial" font-size="14.00">TEXT</text>
<polygon fill="none" stroke="#6a7a89" points="810.39,-419.26 810.39,-449.01 862.64,-449.01 862.64,-419.26 810.39,-419.26"/>
<text xml:space="preserve" text-anchor="start" x="817.39" y="-430.38" font-family="Arial" font-size="10.00"> </text>
<polygon fill="none" stroke="#6a7a89" points="538.64,-389.51 538.64,-419.26 699.64,-419.26 699.64,-389.51 538.64,-389.51"/>
<text xml:space="preserve" text-anchor="start" x="545.64" y="-399.96" font-family="Arial" font-weight="bold" font-size="14.00">location</text>
<polygon fill="none" stroke="#6a7a89" points="699.64,-389.51 699.64,-419.26 810.39,-419.26 810.39,-389.51 699.64,-389.51"/>
<text xml:space="preserve" text-anchor="start" x="706.64" y="-399.51" font-family="Arial" font-size="14.00">VARCHAR(200)</text>
<polygon fill="none" stroke="#6a7a89" points="810.39,-389.51 810.39,-419.26 862.64,-419.26 862.64,-389.51 810.39,-389.51"/>
<text xml:space="preserve" text-anchor="start" x="817.39" y="-400.63" font-family="Arial" font-size="10.00"> </text>
<polygon fill="none" stroke="#6a7a89" points="538.64,-359.76 538.64,-389.51 699.64,-389.51 699.64,-359.76 538.64,-359.76"/>
<text xml:space="preserve" text-anchor="start" x="545.64" y="-370.21" font-family="Arial" font-weight="bold" font-size="14.00">max_participants</text>
<polygon fill="none" stroke="#6a7a89" points="699.64,-359.76 699.64,-389.51 810.39,-389.51 810.39,-359.76 699.64,-359.76"/>
<text xml:space="preserve" text-anchor="start" x="706.64" y="-369.76" font-family="Arial" font-size="14.00">INT</text>
<polygon fill="none" stroke="#6a7a89" points="810.39,-359.76 810.39,-389.51 862.64,-389.51 862.64,-359.76 810.39,-359.76"/>
<text xml:space="preserve" text-anchor="start" x="817.39" y="-370.88" font-family="Arial" font-size="10.00">NN DEF</text>
<polygon fill="none" stroke="#6a7a89" points="538.64,-330.01 538.64,-359.76 699.64,-359.76 699.64,-330.01 538.64,-330.01"/>
<text xml:space="preserve" text-anchor="start" x="545.64" y="-340.46" font-family="Arial" font-weight="bold" font-size="14.00">current_participants</text>
<polygon fill="none" stroke="#6a7a89" points="699.64,-330.01 699.64,-359.76 810.39,-359.76 810.39,-330.01 699.64,-330.01"/>
<text xml:space="preserve" text-anchor="start" x="706.64" y="-340.01" font-family="Arial" font-size="14.00">INT</text>
<polygon fill="none" stroke="#6a7a89" points="810.39,-330.01 810.39,-359.76 862.64,-359.76 862.64,-330.01 810.39,-330.01"/>
<text xml:space="preserve" text-anchor="start" x="817.39" y="-341.13" font-family="Arial" font-size="10.00">NN DEF</text>
<polygon fill="none" stroke="#6a7a89" points="538.64,-300.26 538.64,-330.01 699.64,-330.01 699.64,-300.26 538.64,-300.26"/>
<text xml:space="preserve" text-anchor="start" x="545.64" y="-310.71" font-family="Arial" font-weight="bold" font-size="14.00">volunteer_hours</text>
<polygon fill="none" stroke="#6a7a89" points="699.64,-300.26 699.64,-330.01 810.39,-330.01 810.39,-300.26 699.64,-300.26"/>
<text xml:space="preserve" text-anchor="start" x="706.64" y="-310.26" font-family="Arial" font-size="14.00">DECIMAL(5,1)</text>
<polygon fill="none" stroke="#6a7a89" points="810.39,-300.26 810.39,-330.01 862.64,-330.01 862.64,-300.26 810.39,-300.26"/>
<text xml:space="preserve" text-anchor="start" x="817.39" y="-311.38" font-family="Arial" font-size="10.00">NN DEF</text>
<polygon fill="none" stroke="#6a7a89" points="538.64,-270.51 538.64,-300.26 699.64,-300.26 699.64,-270.51 538.64,-270.51"/>
<text xml:space="preserve" text-anchor="start" x="545.64" y="-280.96" font-family="Arial" font-weight="bold" font-size="14.00">start_time</text>
<polygon fill="none" stroke="#6a7a89" points="699.64,-270.51 699.64,-300.26 810.39,-300.26 810.39,-270.51 699.64,-270.51"/>
<text xml:space="preserve" text-anchor="start" x="706.64" y="-280.51" font-family="Arial" font-size="14.00">DATETIME</text>
<polygon fill="none" stroke="#6a7a89" points="810.39,-270.51 810.39,-300.26 862.64,-300.26 862.64,-270.51 810.39,-270.51"/>
<text xml:space="preserve" text-anchor="start" x="817.39" y="-281.63" font-family="Arial" font-size="10.00">NN</text>
<polygon fill="none" stroke="#6a7a89" points="538.64,-240.76 538.64,-270.51 699.64,-270.51 699.64,-240.76 538.64,-240.76"/>
<text xml:space="preserve" text-anchor="start" x="545.64" y="-251.21" font-family="Arial" font-weight="bold" font-size="14.00">end_time</text>
<polygon fill="none" stroke="#6a7a89" points="699.64,-240.76 699.64,-270.51 810.39,-270.51 810.39,-240.76 699.64,-240.76"/>
<text xml:space="preserve" text-anchor="start" x="706.64" y="-250.76" font-family="Arial" font-size="14.00">DATETIME</text>
<polygon fill="none" stroke="#6a7a89" points="810.39,-240.76 810.39,-270.51 862.64,-270.51 862.64,-240.76 810.39,-240.76"/>
<text xml:space="preserve" text-anchor="start" x="817.39" y="-251.88" font-family="Arial" font-size="10.00">NN</text>
<polygon fill="none" stroke="#6a7a89" points="538.64,-211.01 538.64,-240.76 699.64,-240.76 699.64,-211.01 538.64,-211.01"/>
<text xml:space="preserve" text-anchor="start" x="545.64" y="-221.46" font-family="Arial" font-weight="bold" font-size="14.00">registration_start_time</text>
<polygon fill="none" stroke="#6a7a89" points="699.64,-211.01 699.64,-240.76 810.39,-240.76 810.39,-211.01 699.64,-211.01"/>
<text xml:space="preserve" text-anchor="start" x="706.64" y="-221.01" font-family="Arial" font-size="14.00">DATETIME</text>
<polygon fill="none" stroke="#6a7a89" points="810.39,-211.01 810.39,-240.76 862.64,-240.76 862.64,-211.01 810.39,-211.01"/>
<text xml:space="preserve" text-anchor="start" x="817.39" y="-222.13" font-family="Arial" font-size="10.00"> </text>
<polygon fill="none" stroke="#6a7a89" points="538.64,-181.26 538.64,-211.01 699.64,-211.01 699.64,-181.26 538.64,-181.26"/>
<text xml:space="preserve" text-anchor="start" x="545.64" y="-191.71" font-family="Arial" font-weight="bold" font-size="14.00">registration_deadline</text>
<polygon fill="none" stroke="#6a7a89" points="699.64,-181.26 699.64,-211.01 810.39,-211.01 810.39,-181.26 699.64,-181.26"/>
<text xml:space="preserve" text-anchor="start" x="706.64" y="-191.26" font-family="Arial" font-size="14.00">DATETIME</text>
<polygon fill="none" stroke="#6a7a89" points="810.39,-181.26 810.39,-211.01 862.64,-211.01 862.64,-181.26 810.39,-181.26"/>
<text xml:space="preserve" text-anchor="start" x="817.39" y="-192.38" font-family="Arial" font-size="10.00">NN</text>
<polygon fill="none" stroke="#6a7a89" points="538.64,-151.51 538.64,-181.26 699.64,-181.26 699.64,-151.51 538.64,-151.51"/>
<text xml:space="preserve" text-anchor="start" x="545.64" y="-161.96" font-family="Arial" font-weight="bold" font-size="14.00">status</text>
<polygon fill="none" stroke="#6a7a89" points="699.64,-151.51 699.64,-181.26 810.39,-181.26 810.39,-151.51 699.64,-151.51"/>
<text xml:space="preserve" text-anchor="start" x="706.64" y="-161.51" font-family="Arial" font-size="14.00">VARCHAR(20)</text>
<polygon fill="none" stroke="#6a7a89" points="810.39,-151.51 810.39,-181.26 862.64,-181.26 862.64,-151.51 810.39,-151.51"/>
<text xml:space="preserve" text-anchor="start" x="817.39" y="-162.63" font-family="Arial" font-size="10.00">NN DEF</text>
<polygon fill="none" stroke="#6a7a89" points="538.64,-121.76 538.64,-151.51 699.64,-151.51 699.64,-121.76 538.64,-121.76"/>
<text xml:space="preserve" text-anchor="start" x="545.64" y="-132.21" font-family="Arial" font-weight="bold" font-size="14.00">category</text>
<polygon fill="none" stroke="#6a7a89" points="699.64,-121.76 699.64,-151.51 810.39,-151.51 810.39,-121.76 699.64,-121.76"/>
<text xml:space="preserve" text-anchor="start" x="706.64" y="-131.76" font-family="Arial" font-size="14.00">VARCHAR(50)</text>
<polygon fill="none" stroke="#6a7a89" points="810.39,-121.76 810.39,-151.51 862.64,-151.51 862.64,-121.76 810.39,-121.76"/>
<text xml:space="preserve" text-anchor="start" x="817.39" y="-132.88" font-family="Arial" font-size="10.00"> </text>
<polygon fill="none" stroke="#6a7a89" points="538.64,-92.01 538.64,-121.76 699.64,-121.76 699.64,-92.01 538.64,-92.01"/>
<text xml:space="preserve" text-anchor="start" x="545.64" y="-102.46" font-family="Arial" font-weight="bold" font-size="14.00">creator_id</text>
<polygon fill="none" stroke="#6a7a89" points="699.64,-92.01 699.64,-121.76 810.39,-121.76 810.39,-92.01 699.64,-92.01"/>
<text xml:space="preserve" text-anchor="start" x="706.64" y="-102.01" font-family="Arial" font-size="14.00">BIGINT</text>
<polygon fill="none" stroke="#6a7a89" points="810.39,-92.01 810.39,-121.76 862.64,-121.76 862.64,-92.01 810.39,-92.01"/>
<text xml:space="preserve" text-anchor="start" x="817.39" y="-103.13" font-family="Arial" font-size="10.00"> </text>
<polygon fill="none" stroke="#6a7a89" points="538.64,-62.26 538.64,-92.01 699.64,-92.01 699.64,-62.26 538.64,-62.26"/>
<text xml:space="preserve" text-anchor="start" x="545.64" y="-72.71" font-family="Arial" font-weight="bold" font-size="14.00">create_time</text>
<polygon fill="none" stroke="#6a7a89" points="699.64,-62.26 699.64,-92.01 810.39,-92.01 810.39,-62.26 699.64,-62.26"/>
<text xml:space="preserve" text-anchor="start" x="706.64" y="-72.26" font-family="Arial" font-size="14.00">DATETIME</text>
<polygon fill="none" stroke="#6a7a89" points="810.39,-62.26 810.39,-92.01 862.64,-92.01 862.64,-62.26 810.39,-62.26"/>
<text xml:space="preserve" text-anchor="start" x="817.39" y="-73.38" font-family="Arial" font-size="10.00">DEF</text>
<polygon fill="none" stroke="#6a7a89" points="538.64,-32.51 538.64,-62.26 699.64,-62.26 699.64,-32.51 538.64,-32.51"/>
<text xml:space="preserve" text-anchor="start" x="545.64" y="-42.96" font-family="Arial" font-weight="bold" font-size="14.00">update_time</text>
<polygon fill="none" stroke="#6a7a89" points="699.64,-32.51 699.64,-62.26 810.39,-62.26 810.39,-32.51 699.64,-32.51"/>
<text xml:space="preserve" text-anchor="start" x="706.64" y="-42.51" font-family="Arial" font-size="14.00">DATETIME</text>
<polygon fill="none" stroke="#6a7a89" points="810.39,-32.51 810.39,-62.26 862.64,-62.26 862.64,-32.51 810.39,-32.51"/>
<text xml:space="preserve" text-anchor="start" x="817.39" y="-43.63" font-family="Arial" font-size="10.00">DEF</text>
</g>
<!-- external_sys_user -->
<g id="node5" class="node">
<title>external_sys_user</title>
<polygon fill="#24415f" stroke="none" points="1080.14,-393.13 1080.14,-422.88 1275.89,-422.88 1275.89,-393.13 1080.14,-393.13"/>
<polygon fill="none" stroke="#6a7a89" points="1080.14,-393.13 1080.14,-422.88 1275.89,-422.88 1275.89,-393.13 1080.14,-393.13"/>
<text xml:space="preserve" text-anchor="start" x="1118.76" y="-403.58" font-family="Arial" font-weight="bold" font-size="14.00" fill="white">external: sys_user</text>
<polygon fill="none" stroke="#6a7a89" points="1080.14,-363.38 1080.14,-393.13 1160.89,-393.13 1160.89,-363.38 1080.14,-363.38"/>
<text xml:space="preserve" text-anchor="start" x="1087.14" y="-373.83" font-family="Arial" font-weight="bold" font-size="14.00">id</text>
<polygon fill="none" stroke="#6a7a89" points="1160.89,-363.38 1160.89,-393.13 1248.39,-393.13 1248.39,-363.38 1160.89,-363.38"/>
<text xml:space="preserve" text-anchor="start" x="1167.89" y="-373.38" font-family="Arial" font-size="14.00">BIGINT</text>
<polygon fill="none" stroke="#6a7a89" points="1248.39,-363.38 1248.39,-393.13 1275.89,-393.13 1275.89,-363.38 1248.39,-363.38"/>
<text xml:space="preserve" text-anchor="start" x="1255.39" y="-374.51" font-family="Arial" font-size="10.00">PK</text>
<polygon fill="none" stroke="#6a7a89" points="1080.14,-333.63 1080.14,-363.38 1160.89,-363.38 1160.89,-333.63 1080.14,-333.63"/>
<text xml:space="preserve" text-anchor="start" x="1087.14" y="-344.08" font-family="Arial" font-weight="bold" font-size="14.00">owned_by</text>
<polygon fill="none" stroke="#6a7a89" points="1160.89,-333.63 1160.89,-363.38 1248.39,-363.38 1248.39,-333.63 1160.89,-333.63"/>
<text xml:space="preserve" text-anchor="start" x="1167.89" y="-343.63" font-family="Arial" font-size="14.00">user&#45;service</text>
<polygon fill="none" stroke="#6a7a89" points="1248.39,-333.63 1248.39,-363.38 1275.89,-363.38 1275.89,-333.63 1248.39,-333.63"/>
<text xml:space="preserve" text-anchor="start" x="1255.39" y="-344.76" font-family="Arial" font-size="10.00"> </text>
</g>
<!-- vol_activity&#45;&gt;external_sys_user -->
<g id="edge3" class="edge">
<title>vol_activity:creator_id&#45;&gt;external_sys_user:id</title>
<path fill="none" stroke="#9a6a2f" stroke-dasharray="5,2" d="M537.64,-106.88C521.11,-106.88 526.87,-44.12 538.64,-32.51 589.89,18.06 799.61,2.3 862.64,-32.51 1019.07,-118.91 902.37,-370.24 1071.85,-378.07"/>
<polygon fill="#9a6a2f" stroke="#9a6a2f" points="1071.57,-380.52 1078.62,-378.23 1071.68,-375.62 1071.57,-380.52"/>
<text xml:space="preserve" text-anchor="middle" x="971.39" y="-375.63" font-family="Arial" font-size="10.00">cross&#45;service creator id; no DB FK</text>
</g>
<!-- vol_registration -->
<g id="node2" class="node">
<title>vol_registration</title>
<polygon fill="#24415f" stroke="none" points="15.89,-667.01 15.89,-696.76 283.64,-696.76 283.64,-667.01 15.89,-667.01"/>
<polygon fill="none" stroke="#6a7a89" points="15.89,-667.01 15.89,-696.76 283.64,-696.76 283.64,-667.01 15.89,-667.01"/>
<text xml:space="preserve" text-anchor="start" x="99.14" y="-677.46" font-family="Arial" font-weight="bold" font-size="14.00" fill="white">vol_registration</text>
<polygon fill="none" stroke="#6a7a89" points="15.89,-637.26 15.89,-667.01 140.89,-667.01 140.89,-637.26 15.89,-637.26"/>
<text xml:space="preserve" text-anchor="start" x="22.89" y="-647.71" font-family="Arial" font-weight="bold" font-size="14.00">id</text>
<polygon fill="none" stroke="#6a7a89" points="140.89,-637.26 140.89,-667.01 244.14,-667.01 244.14,-637.26 140.89,-637.26"/>
<text xml:space="preserve" text-anchor="start" x="147.89" y="-647.26" font-family="Arial" font-size="14.00">BIGINT</text>
<polygon fill="none" stroke="#6a7a89" points="244.14,-637.26 244.14,-667.01 283.64,-667.01 283.64,-637.26 244.14,-637.26"/>
<text xml:space="preserve" text-anchor="start" x="251.14" y="-648.38" font-family="Arial" font-size="10.00">PK AI</text>
<polygon fill="none" stroke="#6a7a89" points="15.89,-607.51 15.89,-637.26 140.89,-637.26 140.89,-607.51 15.89,-607.51"/>
<text xml:space="preserve" text-anchor="start" x="22.89" y="-617.96" font-family="Arial" font-weight="bold" font-size="14.00">user_id</text>
<polygon fill="none" stroke="#6a7a89" points="140.89,-607.51 140.89,-637.26 244.14,-637.26 244.14,-607.51 140.89,-607.51"/>
<text xml:space="preserve" text-anchor="start" x="147.89" y="-617.51" font-family="Arial" font-size="14.00">BIGINT</text>
<polygon fill="none" stroke="#6a7a89" points="244.14,-607.51 244.14,-637.26 283.64,-637.26 283.64,-607.51 244.14,-607.51"/>
<text xml:space="preserve" text-anchor="start" x="251.14" y="-618.63" font-family="Arial" font-size="10.00">NN</text>
<polygon fill="none" stroke="#6a7a89" points="15.89,-577.76 15.89,-607.51 140.89,-607.51 140.89,-577.76 15.89,-577.76"/>
<text xml:space="preserve" text-anchor="start" x="22.89" y="-588.21" font-family="Arial" font-weight="bold" font-size="14.00">activity_id</text>
<polygon fill="none" stroke="#6a7a89" points="140.89,-577.76 140.89,-607.51 244.14,-607.51 244.14,-577.76 140.89,-577.76"/>
<text xml:space="preserve" text-anchor="start" x="147.89" y="-587.76" font-family="Arial" font-size="14.00">BIGINT</text>
<polygon fill="none" stroke="#6a7a89" points="244.14,-577.76 244.14,-607.51 283.64,-607.51 283.64,-577.76 244.14,-577.76"/>
<text xml:space="preserve" text-anchor="start" x="251.14" y="-588.88" font-family="Arial" font-size="10.00">NN</text>
<polygon fill="none" stroke="#6a7a89" points="15.89,-548.01 15.89,-577.76 140.89,-577.76 140.89,-548.01 15.89,-548.01"/>
<text xml:space="preserve" text-anchor="start" x="22.89" y="-558.46" font-family="Arial" font-weight="bold" font-size="14.00">registration_time</text>
<polygon fill="none" stroke="#6a7a89" points="140.89,-548.01 140.89,-577.76 244.14,-577.76 244.14,-548.01 140.89,-548.01"/>
<text xml:space="preserve" text-anchor="start" x="147.89" y="-558.01" font-family="Arial" font-size="14.00">DATETIME</text>
<polygon fill="none" stroke="#6a7a89" points="244.14,-548.01 244.14,-577.76 283.64,-577.76 283.64,-548.01 244.14,-548.01"/>
<text xml:space="preserve" text-anchor="start" x="251.14" y="-559.13" font-family="Arial" font-size="10.00">DEF</text>
<polygon fill="none" stroke="#6a7a89" points="15.89,-518.26 15.89,-548.01 140.89,-548.01 140.89,-518.26 15.89,-518.26"/>
<text xml:space="preserve" text-anchor="start" x="22.89" y="-528.71" font-family="Arial" font-weight="bold" font-size="14.00">check_in_status</text>
<polygon fill="none" stroke="#6a7a89" points="140.89,-518.26 140.89,-548.01 244.14,-548.01 244.14,-518.26 140.89,-518.26"/>
<text xml:space="preserve" text-anchor="start" x="147.89" y="-528.26" font-family="Arial" font-size="14.00">TINYINT</text>
<polygon fill="none" stroke="#6a7a89" points="244.14,-518.26 244.14,-548.01 283.64,-548.01 283.64,-518.26 244.14,-518.26"/>
<text xml:space="preserve" text-anchor="start" x="251.14" y="-529.38" font-family="Arial" font-size="10.00">DEF</text>
<polygon fill="none" stroke="#6a7a89" points="15.89,-488.51 15.89,-518.26 140.89,-518.26 140.89,-488.51 15.89,-488.51"/>
<text xml:space="preserve" text-anchor="start" x="22.89" y="-498.96" font-family="Arial" font-weight="bold" font-size="14.00">check_in_time</text>
<polygon fill="none" stroke="#6a7a89" points="140.89,-488.51 140.89,-518.26 244.14,-518.26 244.14,-488.51 140.89,-488.51"/>
<text xml:space="preserve" text-anchor="start" x="147.89" y="-498.51" font-family="Arial" font-size="14.00">DATETIME</text>
<polygon fill="none" stroke="#6a7a89" points="244.14,-488.51 244.14,-518.26 283.64,-518.26 283.64,-488.51 244.14,-488.51"/>
<text xml:space="preserve" text-anchor="start" x="251.14" y="-499.63" font-family="Arial" font-size="10.00"> </text>
<polygon fill="none" stroke="#6a7a89" points="15.89,-458.76 15.89,-488.51 140.89,-488.51 140.89,-458.76 15.89,-458.76"/>
<text xml:space="preserve" text-anchor="start" x="22.89" y="-469.21" font-family="Arial" font-weight="bold" font-size="14.00">hours_confirmed</text>
<polygon fill="none" stroke="#6a7a89" points="140.89,-458.76 140.89,-488.51 244.14,-488.51 244.14,-458.76 140.89,-458.76"/>
<text xml:space="preserve" text-anchor="start" x="147.89" y="-468.76" font-family="Arial" font-size="14.00">TINYINT</text>
<polygon fill="none" stroke="#6a7a89" points="244.14,-458.76 244.14,-488.51 283.64,-488.51 283.64,-458.76 244.14,-458.76"/>
<text xml:space="preserve" text-anchor="start" x="251.14" y="-469.88" font-family="Arial" font-size="10.00">DEF</text>
<polygon fill="none" stroke="#6a7a89" points="15.89,-429.01 15.89,-458.76 140.89,-458.76 140.89,-429.01 15.89,-429.01"/>
<text xml:space="preserve" text-anchor="start" x="22.89" y="-439.46" font-family="Arial" font-weight="bold" font-size="14.00">confirm_time</text>
<polygon fill="none" stroke="#6a7a89" points="140.89,-429.01 140.89,-458.76 244.14,-458.76 244.14,-429.01 140.89,-429.01"/>
<text xml:space="preserve" text-anchor="start" x="147.89" y="-439.01" font-family="Arial" font-size="14.00">DATETIME</text>
<polygon fill="none" stroke="#6a7a89" points="244.14,-429.01 244.14,-458.76 283.64,-458.76 283.64,-429.01 244.14,-429.01"/>
<text xml:space="preserve" text-anchor="start" x="251.14" y="-440.13" font-family="Arial" font-size="10.00"> </text>
<polygon fill="none" stroke="#6a7a89" points="15.89,-399.26 15.89,-429.01 140.89,-429.01 140.89,-399.26 15.89,-399.26"/>
<text xml:space="preserve" text-anchor="start" x="22.89" y="-409.71" font-family="Arial" font-weight="bold" font-size="14.00">status</text>
<polygon fill="none" stroke="#6a7a89" points="140.89,-399.26 140.89,-429.01 244.14,-429.01 244.14,-399.26 140.89,-399.26"/>
<text xml:space="preserve" text-anchor="start" x="147.89" y="-409.26" font-family="Arial" font-size="14.00">VARCHAR(20)</text>
<polygon fill="none" stroke="#6a7a89" points="244.14,-399.26 244.14,-429.01 283.64,-429.01 283.64,-399.26 244.14,-399.26"/>
<text xml:space="preserve" text-anchor="start" x="251.14" y="-410.38" font-family="Arial" font-size="10.00">DEF</text>
<polygon fill="none" stroke="#6a7a89" points="15.89,-369.51 15.89,-399.26 140.89,-399.26 140.89,-369.51 15.89,-369.51"/>
<text xml:space="preserve" text-anchor="start" x="22.89" y="-379.96" font-family="Arial" font-weight="bold" font-size="14.00">create_time</text>
<polygon fill="none" stroke="#6a7a89" points="140.89,-369.51 140.89,-399.26 244.14,-399.26 244.14,-369.51 140.89,-369.51"/>
<text xml:space="preserve" text-anchor="start" x="147.89" y="-379.51" font-family="Arial" font-size="14.00">DATETIME</text>
<polygon fill="none" stroke="#6a7a89" points="244.14,-369.51 244.14,-399.26 283.64,-399.26 283.64,-369.51 244.14,-369.51"/>
<text xml:space="preserve" text-anchor="start" x="251.14" y="-380.63" font-family="Arial" font-size="10.00">DEF</text>
<polygon fill="none" stroke="#6a7a89" points="15.89,-339.76 15.89,-369.51 140.89,-369.51 140.89,-339.76 15.89,-339.76"/>
<text xml:space="preserve" text-anchor="start" x="22.89" y="-350.21" font-family="Arial" font-weight="bold" font-size="14.00">update_time</text>
<polygon fill="none" stroke="#6a7a89" points="140.89,-339.76 140.89,-369.51 244.14,-369.51 244.14,-339.76 140.89,-339.76"/>
<text xml:space="preserve" text-anchor="start" x="147.89" y="-349.76" font-family="Arial" font-size="14.00">DATETIME</text>
<polygon fill="none" stroke="#6a7a89" points="244.14,-339.76 244.14,-369.51 283.64,-369.51 283.64,-339.76 244.14,-339.76"/>
<text xml:space="preserve" text-anchor="start" x="251.14" y="-350.88" font-family="Arial" font-size="10.00">DEF</text>
</g>
<!-- vol_registration&#45;&gt;vol_activity -->
<g id="edge1" class="edge">
<title>vol_registration:activity_id&#45;&gt;vol_activity:id</title>
<path fill="none" stroke="#4f6f52" stroke-dasharray="5,2" d="M14.89,-592.63C-8.25,-592.63 -0.55,-680.48 15.89,-696.76 37.02,-717.69 258.59,-712.82 283.64,-696.76 321.3,-672.6 293.01,-635.88 325.64,-605.26 397.49,-537.82 435.06,-524.14 530.17,-523.42"/>
<polygon fill="#4f6f52" stroke="#4f6f52" points="530.13,-525.87 537.12,-523.39 530.11,-520.97 530.13,-525.87"/>
<text xml:space="preserve" text-anchor="middle" x="415.64" y="-607.76" font-family="Arial" font-size="10.00">registration belongs to activity; no DB FK</text>
</g>
<!-- vol_registration&#45;&gt;external_sys_user -->
<g id="edge2" class="edge">
<title>vol_registration:user_id&#45;&gt;external_sys_user:id</title>
<path fill="none" stroke="#9a6a2f" stroke-dasharray="5,2" d="M14.89,-622.38C-1.64,-622.38 4.12,-685.15 15.89,-696.76 58.24,-738.55 224.39,-702.26 283.64,-696.76 544.33,-672.54 629.99,-708.36 862.64,-588.26 890.56,-573.84 1027.2,-402.6 1072.21,-380.58"/>
<polygon fill="#9a6a2f" stroke="#9a6a2f" points="1072.66,-383.01 1078.68,-378.69 1071.28,-378.3 1072.66,-383.01"/>
<text xml:space="preserve" text-anchor="middle" x="700.64" y="-684.58" font-family="Arial" font-size="10.00">cross&#45;service user id; no DB FK</text>
</g>
<!-- event_outbox -->
<g id="node3" class="node">
<title>event_outbox</title>
<polygon fill="#24415f" stroke="none" points="10.64,-1064.01 10.64,-1093.76 288.89,-1093.76 288.89,-1064.01 10.64,-1064.01"/>
<polygon fill="none" stroke="#6a7a89" points="10.64,-1064.01 10.64,-1093.76 288.89,-1093.76 288.89,-1064.01 10.64,-1064.01"/>
<text xml:space="preserve" text-anchor="start" x="105.89" y="-1074.46" font-family="Arial" font-weight="bold" font-size="14.00" fill="white">event_outbox</text>
<polygon fill="none" stroke="#6a7a89" points="10.64,-1034.26 10.64,-1064.01 125.89,-1064.01 125.89,-1034.26 10.64,-1034.26"/>
<text xml:space="preserve" text-anchor="start" x="17.64" y="-1044.71" font-family="Arial" font-weight="bold" font-size="14.00">id</text>
<polygon fill="none" stroke="#6a7a89" points="125.89,-1034.26 125.89,-1064.01 236.64,-1064.01 236.64,-1034.26 125.89,-1034.26"/>
<text xml:space="preserve" text-anchor="start" x="132.89" y="-1044.26" font-family="Arial" font-size="14.00">BIGINT</text>
<polygon fill="none" stroke="#6a7a89" points="236.64,-1034.26 236.64,-1064.01 288.89,-1064.01 288.89,-1034.26 236.64,-1034.26"/>
<text xml:space="preserve" text-anchor="start" x="243.64" y="-1045.38" font-family="Arial" font-size="10.00">PK AI</text>
<polygon fill="none" stroke="#6a7a89" points="10.64,-1004.51 10.64,-1034.26 125.89,-1034.26 125.89,-1004.51 10.64,-1004.51"/>
<text xml:space="preserve" text-anchor="start" x="17.64" y="-1014.96" font-family="Arial" font-weight="bold" font-size="14.00">message_id</text>
<polygon fill="none" stroke="#6a7a89" points="125.89,-1004.51 125.89,-1034.26 236.64,-1034.26 236.64,-1004.51 125.89,-1004.51"/>
<text xml:space="preserve" text-anchor="start" x="132.89" y="-1014.51" font-family="Arial" font-size="14.00">VARCHAR(64)</text>
<polygon fill="none" stroke="#6a7a89" points="236.64,-1004.51 236.64,-1034.26 288.89,-1034.26 288.89,-1004.51 236.64,-1004.51"/>
<text xml:space="preserve" text-anchor="start" x="243.64" y="-1015.63" font-family="Arial" font-size="10.00">NN</text>
<polygon fill="none" stroke="#6a7a89" points="10.64,-974.76 10.64,-1004.51 125.89,-1004.51 125.89,-974.76 10.64,-974.76"/>
<text xml:space="preserve" text-anchor="start" x="17.64" y="-985.21" font-family="Arial" font-weight="bold" font-size="14.00">event_type</text>
<polygon fill="none" stroke="#6a7a89" points="125.89,-974.76 125.89,-1004.51 236.64,-1004.51 236.64,-974.76 125.89,-974.76"/>
<text xml:space="preserve" text-anchor="start" x="132.89" y="-984.76" font-family="Arial" font-size="14.00">VARCHAR(100)</text>
<polygon fill="none" stroke="#6a7a89" points="236.64,-974.76 236.64,-1004.51 288.89,-1004.51 288.89,-974.76 236.64,-974.76"/>
<text xml:space="preserve" text-anchor="start" x="243.64" y="-985.88" font-family="Arial" font-size="10.00">NN</text>
<polygon fill="none" stroke="#6a7a89" points="10.64,-945.01 10.64,-974.76 125.89,-974.76 125.89,-945.01 10.64,-945.01"/>
<text xml:space="preserve" text-anchor="start" x="17.64" y="-955.46" font-family="Arial" font-weight="bold" font-size="14.00">aggregate_type</text>
<polygon fill="none" stroke="#6a7a89" points="125.89,-945.01 125.89,-974.76 236.64,-974.76 236.64,-945.01 125.89,-945.01"/>
<text xml:space="preserve" text-anchor="start" x="132.89" y="-955.01" font-family="Arial" font-size="14.00">VARCHAR(100)</text>
<polygon fill="none" stroke="#6a7a89" points="236.64,-945.01 236.64,-974.76 288.89,-974.76 288.89,-945.01 236.64,-945.01"/>
<text xml:space="preserve" text-anchor="start" x="243.64" y="-956.13" font-family="Arial" font-size="10.00">NN</text>
<polygon fill="none" stroke="#6a7a89" points="10.64,-915.26 10.64,-945.01 125.89,-945.01 125.89,-915.26 10.64,-915.26"/>
<text xml:space="preserve" text-anchor="start" x="17.64" y="-925.71" font-family="Arial" font-weight="bold" font-size="14.00">aggregate_id</text>
<polygon fill="none" stroke="#6a7a89" points="125.89,-915.26 125.89,-945.01 236.64,-945.01 236.64,-915.26 125.89,-915.26"/>
<text xml:space="preserve" text-anchor="start" x="132.89" y="-925.26" font-family="Arial" font-size="14.00">VARCHAR(100)</text>
<polygon fill="none" stroke="#6a7a89" points="236.64,-915.26 236.64,-945.01 288.89,-945.01 288.89,-915.26 236.64,-915.26"/>
<text xml:space="preserve" text-anchor="start" x="243.64" y="-926.38" font-family="Arial" font-size="10.00">NN</text>
<polygon fill="none" stroke="#6a7a89" points="10.64,-885.51 10.64,-915.26 125.89,-915.26 125.89,-885.51 10.64,-885.51"/>
<text xml:space="preserve" text-anchor="start" x="17.64" y="-895.96" font-family="Arial" font-weight="bold" font-size="14.00">payload_json</text>
<polygon fill="none" stroke="#6a7a89" points="125.89,-885.51 125.89,-915.26 236.64,-915.26 236.64,-885.51 125.89,-885.51"/>
<text xml:space="preserve" text-anchor="start" x="132.89" y="-895.51" font-family="Arial" font-size="14.00">LONGTEXT</text>
<polygon fill="none" stroke="#6a7a89" points="236.64,-885.51 236.64,-915.26 288.89,-915.26 288.89,-885.51 236.64,-885.51"/>
<text xml:space="preserve" text-anchor="start" x="243.64" y="-896.63" font-family="Arial" font-size="10.00">NN</text>
<polygon fill="none" stroke="#6a7a89" points="10.64,-855.76 10.64,-885.51 125.89,-885.51 125.89,-855.76 10.64,-855.76"/>
<text xml:space="preserve" text-anchor="start" x="17.64" y="-866.21" font-family="Arial" font-weight="bold" font-size="14.00">status</text>
<polygon fill="none" stroke="#6a7a89" points="125.89,-855.76 125.89,-885.51 236.64,-885.51 236.64,-855.76 125.89,-855.76"/>
<text xml:space="preserve" text-anchor="start" x="132.89" y="-865.76" font-family="Arial" font-size="14.00">VARCHAR(20)</text>
<polygon fill="none" stroke="#6a7a89" points="236.64,-855.76 236.64,-885.51 288.89,-885.51 288.89,-855.76 236.64,-855.76"/>
<text xml:space="preserve" text-anchor="start" x="243.64" y="-866.88" font-family="Arial" font-size="10.00">NN DEF</text>
<polygon fill="none" stroke="#6a7a89" points="10.64,-826.01 10.64,-855.76 125.89,-855.76 125.89,-826.01 10.64,-826.01"/>
<text xml:space="preserve" text-anchor="start" x="17.64" y="-836.46" font-family="Arial" font-weight="bold" font-size="14.00">retry_count</text>
<polygon fill="none" stroke="#6a7a89" points="125.89,-826.01 125.89,-855.76 236.64,-855.76 236.64,-826.01 125.89,-826.01"/>
<text xml:space="preserve" text-anchor="start" x="132.89" y="-836.01" font-family="Arial" font-size="14.00">INT</text>
<polygon fill="none" stroke="#6a7a89" points="236.64,-826.01 236.64,-855.76 288.89,-855.76 288.89,-826.01 236.64,-826.01"/>
<text xml:space="preserve" text-anchor="start" x="243.64" y="-837.13" font-family="Arial" font-size="10.00">NN DEF</text>
<polygon fill="none" stroke="#6a7a89" points="10.64,-796.26 10.64,-826.01 125.89,-826.01 125.89,-796.26 10.64,-796.26"/>
<text xml:space="preserve" text-anchor="start" x="17.64" y="-806.71" font-family="Arial" font-weight="bold" font-size="14.00">next_retry_time</text>
<polygon fill="none" stroke="#6a7a89" points="125.89,-796.26 125.89,-826.01 236.64,-826.01 236.64,-796.26 125.89,-796.26"/>
<text xml:space="preserve" text-anchor="start" x="132.89" y="-806.26" font-family="Arial" font-size="14.00">DATETIME</text>
<polygon fill="none" stroke="#6a7a89" points="236.64,-796.26 236.64,-826.01 288.89,-826.01 288.89,-796.26 236.64,-796.26"/>
<text xml:space="preserve" text-anchor="start" x="243.64" y="-807.38" font-family="Arial" font-size="10.00">NN DEF</text>
<polygon fill="none" stroke="#6a7a89" points="10.64,-766.51 10.64,-796.26 125.89,-796.26 125.89,-766.51 10.64,-766.51"/>
<text xml:space="preserve" text-anchor="start" x="17.64" y="-776.96" font-family="Arial" font-weight="bold" font-size="14.00">created_at</text>
<polygon fill="none" stroke="#6a7a89" points="125.89,-766.51 125.89,-796.26 236.64,-796.26 236.64,-766.51 125.89,-766.51"/>
<text xml:space="preserve" text-anchor="start" x="132.89" y="-776.51" font-family="Arial" font-size="14.00">DATETIME</text>
<polygon fill="none" stroke="#6a7a89" points="236.64,-766.51 236.64,-796.26 288.89,-796.26 288.89,-766.51 236.64,-766.51"/>
<text xml:space="preserve" text-anchor="start" x="243.64" y="-777.63" font-family="Arial" font-size="10.00">NN DEF</text>
<polygon fill="none" stroke="#6a7a89" points="10.64,-736.76 10.64,-766.51 125.89,-766.51 125.89,-736.76 10.64,-736.76"/>
<text xml:space="preserve" text-anchor="start" x="17.64" y="-747.21" font-family="Arial" font-weight="bold" font-size="14.00">sent_at</text>
<polygon fill="none" stroke="#6a7a89" points="125.89,-736.76 125.89,-766.51 236.64,-766.51 236.64,-736.76 125.89,-736.76"/>
<text xml:space="preserve" text-anchor="start" x="132.89" y="-746.76" font-family="Arial" font-size="14.00">DATETIME</text>
<polygon fill="none" stroke="#6a7a89" points="236.64,-736.76 236.64,-766.51 288.89,-766.51 288.89,-736.76 236.64,-736.76"/>
<text xml:space="preserve" text-anchor="start" x="243.64" y="-747.88" font-family="Arial" font-size="10.00"> </text>
</g>
<!-- mq_consume_record -->
<g id="node4" class="node">
<title>mq_consume_record</title>
<polygon fill="#24415f" stroke="none" points="6.89,-1282.76 6.89,-1312.51 292.64,-1312.51 292.64,-1282.76 6.89,-1282.76"/>
<polygon fill="none" stroke="#6a7a89" points="6.89,-1282.76 6.89,-1312.51 292.64,-1312.51 292.64,-1282.76 6.89,-1282.76"/>
<text xml:space="preserve" text-anchor="start" x="80.76" y="-1293.21" font-family="Arial" font-weight="bold" font-size="14.00" fill="white">mq_consume_record</text>
<polygon fill="none" stroke="#6a7a89" points="6.89,-1253.01 6.89,-1282.76 129.64,-1282.76 129.64,-1253.01 6.89,-1253.01"/>
<text xml:space="preserve" text-anchor="start" x="13.89" y="-1263.46" font-family="Arial" font-weight="bold" font-size="14.00">id</text>
<polygon fill="none" stroke="#6a7a89" points="129.64,-1253.01 129.64,-1282.76 240.39,-1282.76 240.39,-1253.01 129.64,-1253.01"/>
<text xml:space="preserve" text-anchor="start" x="136.64" y="-1263.01" font-family="Arial" font-size="14.00">BIGINT</text>
<polygon fill="none" stroke="#6a7a89" points="240.39,-1253.01 240.39,-1282.76 292.64,-1282.76 292.64,-1253.01 240.39,-1253.01"/>
<text xml:space="preserve" text-anchor="start" x="247.39" y="-1264.13" font-family="Arial" font-size="10.00">PK AI</text>
<polygon fill="none" stroke="#6a7a89" points="6.89,-1223.26 6.89,-1253.01 129.64,-1253.01 129.64,-1223.26 6.89,-1223.26"/>
<text xml:space="preserve" text-anchor="start" x="13.89" y="-1233.71" font-family="Arial" font-weight="bold" font-size="14.00">message_id</text>
<polygon fill="none" stroke="#6a7a89" points="129.64,-1223.26 129.64,-1253.01 240.39,-1253.01 240.39,-1223.26 129.64,-1223.26"/>
<text xml:space="preserve" text-anchor="start" x="136.64" y="-1233.26" font-family="Arial" font-size="14.00">VARCHAR(64)</text>
<polygon fill="none" stroke="#6a7a89" points="240.39,-1223.26 240.39,-1253.01 292.64,-1253.01 292.64,-1223.26 240.39,-1223.26"/>
<text xml:space="preserve" text-anchor="start" x="247.39" y="-1234.38" font-family="Arial" font-size="10.00">NN</text>
<polygon fill="none" stroke="#6a7a89" points="6.89,-1193.51 6.89,-1223.26 129.64,-1223.26 129.64,-1193.51 6.89,-1193.51"/>
<text xml:space="preserve" text-anchor="start" x="13.89" y="-1203.96" font-family="Arial" font-weight="bold" font-size="14.00">consumer_name</text>
<polygon fill="none" stroke="#6a7a89" points="129.64,-1193.51 129.64,-1223.26 240.39,-1223.26 240.39,-1193.51 129.64,-1193.51"/>
<text xml:space="preserve" text-anchor="start" x="136.64" y="-1203.51" font-family="Arial" font-size="14.00">VARCHAR(120)</text>
<polygon fill="none" stroke="#6a7a89" points="240.39,-1193.51 240.39,-1223.26 292.64,-1223.26 292.64,-1193.51 240.39,-1193.51"/>
<text xml:space="preserve" text-anchor="start" x="247.39" y="-1204.63" font-family="Arial" font-size="10.00">NN</text>
<polygon fill="none" stroke="#6a7a89" points="6.89,-1163.76 6.89,-1193.51 129.64,-1193.51 129.64,-1163.76 6.89,-1163.76"/>
<text xml:space="preserve" text-anchor="start" x="13.89" y="-1174.21" font-family="Arial" font-weight="bold" font-size="14.00">status</text>
<polygon fill="none" stroke="#6a7a89" points="129.64,-1163.76 129.64,-1193.51 240.39,-1193.51 240.39,-1163.76 129.64,-1163.76"/>
<text xml:space="preserve" text-anchor="start" x="136.64" y="-1173.76" font-family="Arial" font-size="14.00">VARCHAR(20)</text>
<polygon fill="none" stroke="#6a7a89" points="240.39,-1163.76 240.39,-1193.51 292.64,-1193.51 292.64,-1163.76 240.39,-1163.76"/>
<text xml:space="preserve" text-anchor="start" x="247.39" y="-1174.88" font-family="Arial" font-size="10.00">NN DEF</text>
<polygon fill="none" stroke="#6a7a89" points="6.89,-1134.01 6.89,-1163.76 129.64,-1163.76 129.64,-1134.01 6.89,-1134.01"/>
<text xml:space="preserve" text-anchor="start" x="13.89" y="-1144.46" font-family="Arial" font-weight="bold" font-size="14.00">consumed_at</text>
<polygon fill="none" stroke="#6a7a89" points="129.64,-1134.01 129.64,-1163.76 240.39,-1163.76 240.39,-1134.01 129.64,-1134.01"/>
<text xml:space="preserve" text-anchor="start" x="136.64" y="-1144.01" font-family="Arial" font-size="14.00">DATETIME</text>
<polygon fill="none" stroke="#6a7a89" points="240.39,-1134.01 240.39,-1163.76 292.64,-1163.76 292.64,-1134.01 240.39,-1134.01"/>
<text xml:space="preserve" text-anchor="start" x="247.39" y="-1145.13" font-family="Arial" font-size="10.00">NN DEF</text>
</g>
</g>
</svg>
