<?xml version="1.0" encoding="UTF-8" standalone="no"?>
<!DOCTYPE svg PUBLIC "-//W3C//DTD SVG 1.1//EN"
 "http://www.w3.org/Graphics/SVG/1.1/DTD/svg11.dtd">
<!-- Generated by graphviz version 14.1.4 (20260321.0153)
 -->
<!-- Title: ER Pages: 1 -->
<svg width="1386pt" height="1309pt"
 viewBox="0.00 0.00 1386.00 1309.00" xmlns="http://www.w3.org/2000/svg" xmlns:xlink="http://www.w3.org/1999/xlink">
<g id="graph0" class="graph" transform="scale(1 1) rotate(0) translate(25.2 1284.26)">
<title>ER</title>
<polygon fill="white" stroke="none" points="-25.2,25.2 -25.2,-1284.26 1360.98,-1284.26 1360.98,25.2 -25.2,25.2"/>
<text xml:space="preserve" text-anchor="middle" x="667.89" y="-1241.76" font-family="Times New Roman,serif" font-size="14.00">announcement&#45;service</text>
<!-- vol_announcement -->
<g id="node1" class="node">
<title>vol_announcement</title>
<polygon fill="#24415f" stroke="none" points="583.78,-368.81 583.78,-398.56 844.78,-398.56 844.78,-368.81 583.78,-368.81"/>
<polygon fill="none" stroke="#6a7a89" points="583.78,-368.81 583.78,-398.56 844.78,-398.56 844.78,-368.81 583.78,-368.81"/>
<text xml:space="preserve" text-anchor="start" x="652.41" y="-379.26" font-family="Arial" font-weight="bold" font-size="14.00" fill="white">vol_announcement</text>
<polygon fill="none" stroke="#6a7a89" points="583.78,-339.06 583.78,-368.81 681.78,-368.81 681.78,-339.06 583.78,-339.06"/>
<text xml:space="preserve" text-anchor="start" x="590.78" y="-349.51" font-family="Arial" font-weight="bold" font-size="14.00">id</text>
<polygon fill="none" stroke="#6a7a89" points="681.78,-339.06 681.78,-368.81 792.53,-368.81 792.53,-339.06 681.78,-339.06"/>
<text xml:space="preserve" text-anchor="start" x="688.78" y="-349.06" font-family="Arial" font-size="14.00">BIGINT</text>
<polygon fill="none" stroke="#6a7a89" points="792.53,-339.06 792.53,-368.81 844.78,-368.81 844.78,-339.06 792.53,-339.06"/>
<text xml:space="preserve" text-anchor="start" x="799.53" y="-350.18" font-family="Arial" font-size="10.00">PK AI</text>
<polygon fill="none" stroke="#6a7a89" points="583.78,-309.31 583.78,-339.06 681.78,-339.06 681.78,-309.31 583.78,-309.31"/>
<text xml:space="preserve" text-anchor="start" x="590.78" y="-319.76" font-family="Arial" font-weight="bold" font-size="14.00">title</text>
<polygon fill="none" stroke="#6a7a89" points="681.78,-309.31 681.78,-339.06 792.53,-339.06 792.53,-309.31 681.78,-309.31"/>
<text xml:space="preserve" text-anchor="start" x="688.78" y="-319.31" font-family="Arial" font-size="14.00">VARCHAR(200)</text>
<polygon fill="none" stroke="#6a7a89" points="792.53,-309.31 792.53,-339.06 844.78,-339.06 844.78,-309.31 792.53,-309.31"/>
<text xml:space="preserve" text-anchor="start" x="799.53" y="-320.43" font-family="Arial" font-size="10.00">NN</text>
<polygon fill="none" stroke="#6a7a89" points="583.78,-279.56 583.78,-309.31 681.78,-309.31 681.78,-279.56 583.78,-279.56"/>
<text xml:space="preserve" text-anchor="start" x="590.78" y="-290.01" font-family="Arial" font-weight="bold" font-size="14.00">content</text>
<polygon fill="none" stroke="#6a7a89" points="681.78,-279.56 681.78,-309.31 792.53,-309.31 792.53,-279.56 681.78,-279.56"/>
<text xml:space="preserve" text-anchor="start" x="688.78" y="-289.56" font-family="Arial" font-size="14.00">TEXT</text>
<polygon fill="none" stroke="#6a7a89" points="792.53,-279.56 792.53,-309.31 844.78,-309.31 844.78,-279.56 792.53,-279.56"/>
<text xml:space="preserve" text-anchor="start" x="799.53" y="-290.68" font-family="Arial" font-size="10.00">NN</text>
<polygon fill="none" stroke="#6a7a89" points="583.78,-249.81 583.78,-279.56 681.78,-279.56 681.78,-249.81 583.78,-249.81"/>
<text xml:space="preserve" text-anchor="start" x="590.78" y="-260.26" font-family="Arial" font-weight="bold" font-size="14.00">image_key</text>
<polygon fill="none" stroke="#6a7a89" points="681.78,-249.81 681.78,-279.56 792.53,-279.56 792.53,-249.81 681.78,-249.81"/>
<text xml:space="preserve" text-anchor="start" x="688.78" y="-259.81" font-family="Arial" font-size="14.00">TEXT</text>
<polygon fill="none" stroke="#6a7a89" points="792.53,-249.81 792.53,-279.56 844.78,-279.56 844.78,-249.81 792.53,-249.81"/>
<text xml:space="preserve" text-anchor="start" x="799.53" y="-260.93" font-family="Arial" font-size="10.00"> </text>
<polygon fill="none" stroke="#6a7a89" points="583.78,-220.06 583.78,-249.81 681.78,-249.81 681.78,-220.06 583.78,-220.06"/>
<text xml:space="preserve" text-anchor="start" x="590.78" y="-230.51" font-family="Arial" font-weight="bold" font-size="14.00">activity_id</text>
<polygon fill="none" stroke="#6a7a89" points="681.78,-220.06 681.78,-249.81 792.53,-249.81 792.53,-220.06 681.78,-220.06"/>
<text xml:space="preserve" text-anchor="start" x="688.78" y="-230.06" font-family="Arial" font-size="14.00">BIGINT</text>
<polygon fill="none" stroke="#6a7a89" points="792.53,-220.06 792.53,-249.81 844.78,-249.81 844.78,-220.06 792.53,-220.06"/>
<text xml:space="preserve" text-anchor="start" x="799.53" y="-231.18" font-family="Arial" font-size="10.00"> </text>
<polygon fill="none" stroke="#6a7a89" points="583.78,-190.31 583.78,-220.06 681.78,-220.06 681.78,-190.31 583.78,-190.31"/>
<text xml:space="preserve" text-anchor="start" x="590.78" y="-200.76" font-family="Arial" font-weight="bold" font-size="14.00">status</text>
<polygon fill="none" stroke="#6a7a89" points="681.78,-190.31 681.78,-220.06 792.53,-220.06 792.53,-190.31 681.78,-190.31"/>
<text xml:space="preserve" text-anchor="start" x="688.78" y="-200.31" font-family="Arial" font-size="14.00">VARCHAR(20)</text>
<polygon fill="none" stroke="#6a7a89" points="792.53,-190.31 792.53,-220.06 844.78,-220.06 844.78,-190.31 792.53,-190.31"/>
<text xml:space="preserve" text-anchor="start" x="799.53" y="-201.43" font-family="Arial" font-size="10.00">NN DEF</text>
<polygon fill="none" stroke="#6a7a89" points="583.78,-160.56 583.78,-190.31 681.78,-190.31 681.78,-160.56 583.78,-160.56"/>
<text xml:space="preserve" text-anchor="start" x="590.78" y="-171.01" font-family="Arial" font-weight="bold" font-size="14.00">sort_order</text>
<polygon fill="none" stroke="#6a7a89" points="681.78,-160.56 681.78,-190.31 792.53,-190.31 792.53,-160.56 681.78,-160.56"/>
<text xml:space="preserve" text-anchor="start" x="688.78" y="-170.56" font-family="Arial" font-size="14.00">INT</text>
<polygon fill="none" stroke="#6a7a89" points="792.53,-160.56 792.53,-190.31 844.78,-190.31 844.78,-160.56 792.53,-160.56"/>
<text xml:space="preserve" text-anchor="start" x="799.53" y="-171.68" font-family="Arial" font-size="10.00">NN DEF</text>
<polygon fill="none" stroke="#6a7a89" points="583.78,-130.81 583.78,-160.56 681.78,-160.56 681.78,-130.81 583.78,-130.81"/>
<text xml:space="preserve" text-anchor="start" x="590.78" y="-141.26" font-family="Arial" font-weight="bold" font-size="14.00">publisher_id</text>
<polygon fill="none" stroke="#6a7a89" points="681.78,-130.81 681.78,-160.56 792.53,-160.56 792.53,-130.81 681.78,-130.81"/>
<text xml:space="preserve" text-anchor="start" x="688.78" y="-140.81" font-family="Arial" font-size="14.00">BIGINT</text>
<polygon fill="none" stroke="#6a7a89" points="792.53,-130.81 792.53,-160.56 844.78,-160.56 844.78,-130.81 792.53,-130.81"/>
<text xml:space="preserve" text-anchor="start" x="799.53" y="-141.93" font-family="Arial" font-size="10.00"> </text>
<polygon fill="none" stroke="#6a7a89" points="583.78,-101.06 583.78,-130.81 681.78,-130.81 681.78,-101.06 583.78,-101.06"/>
<text xml:space="preserve" text-anchor="start" x="590.78" y="-111.51" font-family="Arial" font-weight="bold" font-size="14.00">publish_time</text>
<polygon fill="none" stroke="#6a7a89" points="681.78,-101.06 681.78,-130.81 792.53,-130.81 792.53,-101.06 681.78,-101.06"/>
<text xml:space="preserve" text-anchor="start" x="688.78" y="-111.06" font-family="Arial" font-size="14.00">DATETIME</text>
<polygon fill="none" stroke="#6a7a89" points="792.53,-101.06 792.53,-130.81 844.78,-130.81 844.78,-101.06 792.53,-101.06"/>
<text xml:space="preserve" text-anchor="start" x="799.53" y="-112.18" font-family="Arial" font-size="10.00"> </text>
<polygon fill="none" stroke="#6a7a89" points="583.78,-71.31 583.78,-101.06 681.78,-101.06 681.78,-71.31 583.78,-71.31"/>
<text xml:space="preserve" text-anchor="start" x="590.78" y="-81.76" font-family="Arial" font-weight="bold" font-size="14.00">create_time</text>
<polygon fill="none" stroke="#6a7a89" points="681.78,-71.31 681.78,-101.06 792.53,-101.06 792.53,-71.31 681.78,-71.31"/>
<text xml:space="preserve" text-anchor="start" x="688.78" y="-81.31" font-family="Arial" font-size="14.00">DATETIME</text>
<polygon fill="none" stroke="#6a7a89" points="792.53,-71.31 792.53,-101.06 844.78,-101.06 844.78,-71.31 792.53,-71.31"/>
<text xml:space="preserve" text-anchor="start" x="799.53" y="-82.43" font-family="Arial" font-size="10.00">DEF</text>
<polygon fill="none" stroke="#6a7a89" points="583.78,-41.56 583.78,-71.31 681.78,-71.31 681.78,-41.56 583.78,-41.56"/>
<text xml:space="preserve" text-anchor="start" x="590.78" y="-52.01" font-family="Arial" font-weight="bold" font-size="14.00">update_time</text>
<polygon fill="none" stroke="#6a7a89" points="681.78,-41.56 681.78,-71.31 792.53,-71.31 792.53,-41.56 681.78,-41.56"/>
<text xml:space="preserve" text-anchor="start" x="688.78" y="-51.56" font-family="Arial" font-size="14.00">DATETIME</text>
<polygon fill="none" stroke="#6a7a89" points="792.53,-41.56 792.53,-71.31 844.78,-71.31 844.78,-41.56 792.53,-41.56"/>
<text xml:space="preserve" text-anchor="start" x="799.53" y="-52.68" font-family="Arial" font-size="10.00">DEF</text>
</g>
<!-- vol_announcement_activity_projection -->
<g id="node4" class="node">
<title>vol_announcement_activity_projection</title>
<polygon fill="#24415f" stroke="none" points="1071.28,-494.06 1071.28,-523.81 1335.78,-523.81 1335.78,-494.06 1071.28,-494.06"/>
<polygon fill="none" stroke="#6a7a89" points="1071.28,-494.06 1071.28,-523.81 1335.78,-523.81 1335.78,-494.06 1071.28,-494.06"/>
<text xml:space="preserve" text-anchor="start" x="1078.28" y="-504.51" font-family="Arial" font-weight="bold" font-size="14.00" fill="white">vol_announcement_activity_projection</text>
<polygon fill="none" stroke="#6a7a89" points="1071.28,-464.31 1071.28,-494.06 1173.95,-494.06 1173.95,-464.31 1071.28,-464.31"/>
<text xml:space="preserve" text-anchor="start" x="1078.28" y="-474.76" font-family="Arial" font-weight="bold" font-size="14.00">id</text>
<polygon fill="none" stroke="#6a7a89" points="1173.95,-464.31 1173.95,-494.06 1293.12,-494.06 1293.12,-464.31 1173.95,-464.31"/>
<text xml:space="preserve" text-anchor="start" x="1180.95" y="-474.31" font-family="Arial" font-size="14.00">BIGINT</text>
<polygon fill="none" stroke="#6a7a89" points="1293.12,-464.31 1293.12,-494.06 1335.78,-494.06 1335.78,-464.31 1293.12,-464.31"/>
<text xml:space="preserve" text-anchor="start" x="1300.12" y="-475.43" font-family="Arial" font-size="10.00">PK</text>
<polygon fill="none" stroke="#6a7a89" points="1071.28,-434.56 1071.28,-464.31 1173.95,-464.31 1173.95,-434.56 1071.28,-434.56"/>
<text xml:space="preserve" text-anchor="start" x="1078.28" y="-445.01" font-family="Arial" font-weight="bold" font-size="14.00">title</text>
<polygon fill="none" stroke="#6a7a89" points="1173.95,-434.56 1173.95,-464.31 1293.12,-464.31 1293.12,-434.56 1173.95,-434.56"/>
<text xml:space="preserve" text-anchor="start" x="1180.95" y="-444.56" font-family="Arial" font-size="14.00">VARCHAR(200)</text>
<polygon fill="none" stroke="#6a7a89" points="1293.12,-434.56 1293.12,-464.31 1335.78,-464.31 1335.78,-434.56 1293.12,-434.56"/>
<text xml:space="preserve" text-anchor="start" x="1300.12" y="-445.68" font-family="Arial" font-size="10.00">NN</text>
<polygon fill="none" stroke="#6a7a89" points="1071.28,-404.81 1071.28,-434.56 1173.95,-434.56 1173.95,-404.81 1071.28,-404.81"/>
<text xml:space="preserve" text-anchor="start" x="1078.28" y="-415.26" font-family="Arial" font-weight="bold" font-size="14.00">location</text>
<polygon fill="none" stroke="#6a7a89" points="1173.95,-404.81 1173.95,-434.56 1293.12,-434.56 1293.12,-404.81 1173.95,-404.81"/>
<text xml:space="preserve" text-anchor="start" x="1180.95" y="-414.81" font-family="Arial" font-size="14.00">VARCHAR(200)</text>
<polygon fill="none" stroke="#6a7a89" points="1293.12,-404.81 1293.12,-434.56 1335.78,-434.56 1335.78,-404.81 1293.12,-404.81"/>
<text xml:space="preserve" text-anchor="start" x="1300.12" y="-415.93" font-family="Arial" font-size="10.00"> </text>
<polygon fill="none" stroke="#6a7a89" points="1071.28,-375.06 1071.28,-404.81 1173.95,-404.81 1173.95,-375.06 1071.28,-375.06"/>
<text xml:space="preserve" text-anchor="start" x="1078.28" y="-385.51" font-family="Arial" font-weight="bold" font-size="14.00">start_time</text>
<polygon fill="none" stroke="#6a7a89" points="1173.95,-375.06 1173.95,-404.81 1293.12,-404.81 1293.12,-375.06 1173.95,-375.06"/>
<text xml:space="preserve" text-anchor="start" x="1180.95" y="-385.06" font-family="Arial" font-size="14.00">DATETIME</text>
<polygon fill="none" stroke="#6a7a89" points="1293.12,-375.06 1293.12,-404.81 1335.78,-404.81 1335.78,-375.06 1293.12,-375.06"/>
<text xml:space="preserve" text-anchor="start" x="1300.12" y="-386.18" font-family="Arial" font-size="10.00"> </text>
<polygon fill="none" stroke="#6a7a89" points="1071.28,-345.31 1071.28,-375.06 1173.95,-375.06 1173.95,-345.31 1071.28,-345.31"/>
<text xml:space="preserve" text-anchor="start" x="1078.28" y="-355.76" font-family="Arial" font-weight="bold" font-size="14.00">end_time</text>
<polygon fill="none" stroke="#6a7a89" points="1173.95,-345.31 1173.95,-375.06 1293.12,-375.06 1293.12,-345.31 1173.95,-345.31"/>
<text xml:space="preserve" text-anchor="start" x="1180.95" y="-355.31" font-family="Arial" font-size="14.00">DATETIME</text>
<polygon fill="none" stroke="#6a7a89" points="1293.12,-345.31 1293.12,-375.06 1335.78,-375.06 1335.78,-345.31 1293.12,-345.31"/>
<text xml:space="preserve" text-anchor="start" x="1300.12" y="-356.43" font-family="Arial" font-size="10.00"> </text>
<polygon fill="none" stroke="#6a7a89" points="1071.28,-315.56 1071.28,-345.31 1173.95,-345.31 1173.95,-315.56 1071.28,-315.56"/>
<text xml:space="preserve" text-anchor="start" x="1078.28" y="-326.01" font-family="Arial" font-weight="bold" font-size="14.00">status</text>
<polygon fill="none" stroke="#6a7a89" points="1173.95,-315.56 1173.95,-345.31 1293.12,-345.31 1293.12,-315.56 1173.95,-315.56"/>
<text xml:space="preserve" text-anchor="start" x="1180.95" y="-325.56" font-family="Arial" font-size="14.00">VARCHAR(20)</text>
<polygon fill="none" stroke="#6a7a89" points="1293.12,-315.56 1293.12,-345.31 1335.78,-345.31 1335.78,-315.56 1293.12,-315.56"/>
<text xml:space="preserve" text-anchor="start" x="1300.12" y="-326.68" font-family="Arial" font-size="10.00"> </text>
<polygon fill="none" stroke="#6a7a89" points="1071.28,-285.81 1071.28,-315.56 1173.95,-315.56 1173.95,-285.81 1071.28,-285.81"/>
<text xml:space="preserve" text-anchor="start" x="1078.28" y="-296.26" font-family="Arial" font-weight="bold" font-size="14.00">category</text>
<polygon fill="none" stroke="#6a7a89" points="1173.95,-285.81 1173.95,-315.56 1293.12,-315.56 1293.12,-285.81 1173.95,-285.81"/>
<text xml:space="preserve" text-anchor="start" x="1180.95" y="-295.81" font-family="Arial" font-size="14.00">VARCHAR(50)</text>
<polygon fill="none" stroke="#6a7a89" points="1293.12,-285.81 1293.12,-315.56 1335.78,-315.56 1335.78,-285.81 1293.12,-285.81"/>
<text xml:space="preserve" text-anchor="start" x="1300.12" y="-296.93" font-family="Arial" font-size="10.00"> </text>
<polygon fill="none" stroke="#6a7a89" points="1071.28,-256.06 1071.28,-285.81 1173.95,-285.81 1173.95,-256.06 1071.28,-256.06"/>
<text xml:space="preserve" text-anchor="start" x="1078.28" y="-266.51" font-family="Arial" font-weight="bold" font-size="14.00">create_time</text>
<polygon fill="none" stroke="#6a7a89" points="1173.95,-256.06 1173.95,-285.81 1293.12,-285.81 1293.12,-256.06 1173.95,-256.06"/>
<text xml:space="preserve" text-anchor="start" x="1180.95" y="-266.06" font-family="Arial" font-size="14.00">DATETIME</text>
<polygon fill="none" stroke="#6a7a89" points="1293.12,-256.06 1293.12,-285.81 1335.78,-285.81 1335.78,-256.06 1293.12,-256.06"/>
<text xml:space="preserve" text-anchor="start" x="1300.12" y="-267.18" font-family="Arial" font-size="10.00">DEF</text>
<polygon fill="none" stroke="#6a7a89" points="1071.28,-226.31 1071.28,-256.06 1173.95,-256.06 1173.95,-226.31 1071.28,-226.31"/>
<text xml:space="preserve" text-anchor="start" x="1078.28" y="-236.76" font-family="Arial" font-weight="bold" font-size="14.00">update_time</text>
<polygon fill="none" stroke="#6a7a89" points="1173.95,-226.31 1173.95,-256.06 1293.12,-256.06 1293.12,-226.31 1173.95,-226.31"/>
<text xml:space="preserve" text-anchor="start" x="1180.95" y="-236.31" font-family="Arial" font-size="14.00">DATETIME</text>
<polygon fill="none" stroke="#6a7a89" points="1293.12,-226.31 1293.12,-256.06 1335.78,-256.06 1335.78,-226.31 1293.12,-226.31"/>
<text xml:space="preserve" text-anchor="start" x="1300.12" y="-237.43" font-family="Arial" font-size="10.00">DEF</text>
</g>
<!-- vol_announcement&#45;&gt;vol_announcement_activity_projection -->
<g id="edge3" class="edge">
<title>vol_announcement:activity_id&#45;&gt;vol_announcement_activity_projection:id</title>
<path fill="none" stroke="#4f6f52" stroke-dasharray="5,2" d="M582.78,-234.93C564.6,-234.93 571.43,-385.22 583.78,-398.56 618.22,-435.73 993.81,-411.77 1038.28,-436.06 1056.49,-446 1049.95,-470.7 1063.07,-477.46"/>
<polygon fill="#4f6f52" stroke="#4f6f52" points="1062.45,-479.83 1069.8,-478.87 1063.46,-475.03 1062.45,-479.83"/>
<text xml:space="preserve" text-anchor="middle" x="958.03" y="-438.56" font-family="Arial" font-size="10.00">local activity projection; no DB FK</text>
</g>
<!-- external_sys_user -->
<g id="node7" class="node">
<title>external_sys_user</title>
<polygon fill="#24415f" stroke="none" points="1105.66,-156.93 1105.66,-186.68 1301.41,-186.68 1301.41,-156.93 1105.66,-156.93"/>
<polygon fill="none" stroke="#6a7a89" points="1105.66,-156.93 1105.66,-186.68 1301.41,-186.68 1301.41,-156.93 1105.66,-156.93"/>
<text xml:space="preserve" text-anchor="start" x="1144.28" y="-167.38" font-family="Arial" font-weight="bold" font-size="14.00" fill="white">external: sys_user</text>
<polygon fill="none" stroke="#6a7a89" points="1105.66,-127.18 1105.66,-156.93 1186.41,-156.93 1186.41,-127.18 1105.66,-127.18"/>
<text xml:space="preserve" text-anchor="start" x="1112.66" y="-137.63" font-family="Arial" font-weight="bold" font-size="14.00">id</text>
<polygon fill="none" stroke="#6a7a89" points="1186.41,-127.18 1186.41,-156.93 1273.91,-156.93 1273.91,-127.18 1186.41,-127.18"/>
<text xml:space="preserve" text-anchor="start" x="1193.41" y="-137.18" font-family="Arial" font-size="14.00">BIGINT</text>
<polygon fill="none" stroke="#6a7a89" points="1273.91,-127.18 1273.91,-156.93 1301.41,-156.93 1301.41,-127.18 1273.91,-127.18"/>
<text xml:space="preserve" text-anchor="start" x="1280.91" y="-138.31" font-family="Arial" font-size="10.00">PK</text>
<polygon fill="none" stroke="#6a7a89" points="1105.66,-97.43 1105.66,-127.18 1186.41,-127.18 1186.41,-97.43 1105.66,-97.43"/>
<text xml:space="preserve" text-anchor="start" x="1112.66" y="-107.88" font-family="Arial" font-weight="bold" font-size="14.00">owned_by</text>
<polygon fill="none" stroke="#6a7a89" points="1186.41,-97.43 1186.41,-127.18 1273.91,-127.18 1273.91,-97.43 1186.41,-97.43"/>
<text xml:space="preserve" text-anchor="start" x="1193.41" y="-107.43" font-family="Arial" font-size="14.00">user&#45;service</text>
<polygon fill="none" stroke="#6a7a89" points="1273.91,-97.43 1273.91,-127.18 1301.41,-127.18 1301.41,-97.43 1273.91,-97.43"/>
<text xml:space="preserve" text-anchor="start" x="1280.91" y="-108.56" font-family="Arial" font-size="10.00"> </text>
</g>
<!-- vol_announcement&#45;&gt;external_sys_user -->
<g id="edge5" class="edge">
<title>vol_announcement:publisher_id&#45;&gt;external_sys_user:id</title>
<path fill="none" stroke="#9a6a2f" stroke-dasharray="5,2" d="M582.78,-145.68C559.64,-145.68 567.34,-57.84 583.78,-41.56 666.2,40.07 730.75,-20.28 844.78,-41.56 963.78,-63.77 980.13,-138.59 1096.48,-141.94"/>
<polygon fill="#9a6a2f" stroke="#9a6a2f" points="1096.11,-144.39 1103.15,-142.04 1096.18,-139.49 1096.11,-144.39"/>
<text xml:space="preserve" text-anchor="middle" x="958.03" y="-134.96" font-family="Arial" font-size="10.00">cross&#45;service publisher id; no DB FK</text>
</g>
<!-- vol_announcement_activity -->
<g id="node2" class="node">
<title>vol_announcement_activity</title>
<polygon fill="#24415f" stroke="none" points="32.16,-588.68 32.16,-618.43 284.16,-618.43 284.16,-588.68 32.16,-588.68"/>
<polygon fill="none" stroke="#6a7a89" points="32.16,-588.68 32.16,-618.43 284.16,-618.43 284.16,-588.68 32.16,-588.68"/>
<text xml:space="preserve" text-anchor="start" x="69.28" y="-599.13" font-family="Arial" font-weight="bold" font-size="14.00" fill="white">vol_announcement_activity</text>
<polygon fill="none" stroke="#6a7a89" points="32.16,-558.93 32.16,-588.68 162.41,-588.68 162.41,-558.93 32.16,-558.93"/>
<text xml:space="preserve" text-anchor="start" x="39.16" y="-569.38" font-family="Arial" font-weight="bold" font-size="14.00">id</text>
<polygon fill="none" stroke="#6a7a89" points="162.41,-558.93 162.41,-588.68 244.66,-588.68 244.66,-558.93 162.41,-558.93"/>
<text xml:space="preserve" text-anchor="start" x="169.41" y="-568.93" font-family="Arial" font-size="14.00">BIGINT</text>
<polygon fill="none" stroke="#6a7a89" points="244.66,-558.93 244.66,-588.68 284.16,-588.68 284.16,-558.93 244.66,-558.93"/>
<text xml:space="preserve" text-anchor="start" x="251.66" y="-570.06" font-family="Arial" font-size="10.00">PK AI</text>
<polygon fill="none" stroke="#6a7a89" points="32.16,-529.18 32.16,-558.93 162.41,-558.93 162.41,-529.18 32.16,-529.18"/>
<text xml:space="preserve" text-anchor="start" x="39.16" y="-539.63" font-family="Arial" font-weight="bold" font-size="14.00">announcement_id</text>
<polygon fill="none" stroke="#6a7a89" points="162.41,-529.18 162.41,-558.93 244.66,-558.93 244.66,-529.18 162.41,-529.18"/>
<text xml:space="preserve" text-anchor="start" x="169.41" y="-539.18" font-family="Arial" font-size="14.00">BIGINT</text>
<polygon fill="none" stroke="#6a7a89" points="244.66,-529.18 244.66,-558.93 284.16,-558.93 284.16,-529.18 244.66,-529.18"/>
<text xml:space="preserve" text-anchor="start" x="251.66" y="-540.31" font-family="Arial" font-size="10.00">NN</text>
<polygon fill="none" stroke="#6a7a89" points="32.16,-499.43 32.16,-529.18 162.41,-529.18 162.41,-499.43 32.16,-499.43"/>
<text xml:space="preserve" text-anchor="start" x="39.16" y="-509.88" font-family="Arial" font-weight="bold" font-size="14.00">activity_id</text>
<polygon fill="none" stroke="#6a7a89" points="162.41,-499.43 162.41,-529.18 244.66,-529.18 244.66,-499.43 162.41,-499.43"/>
<text xml:space="preserve" text-anchor="start" x="169.41" y="-509.43" font-family="Arial" font-size="14.00">BIGINT</text>
<polygon fill="none" stroke="#6a7a89" points="244.66,-499.43 244.66,-529.18 284.16,-529.18 284.16,-499.43 244.66,-499.43"/>
<text xml:space="preserve" text-anchor="start" x="251.66" y="-510.56" font-family="Arial" font-size="10.00">NN</text>
<polygon fill="none" stroke="#6a7a89" points="32.16,-469.68 32.16,-499.43 162.41,-499.43 162.41,-469.68 32.16,-469.68"/>
<text xml:space="preserve" text-anchor="start" x="39.16" y="-480.13" font-family="Arial" font-weight="bold" font-size="14.00">create_time</text>
<polygon fill="none" stroke="#6a7a89" points="162.41,-469.68 162.41,-499.43 244.66,-499.43 244.66,-469.68 162.41,-469.68"/>
<text xml:space="preserve" text-anchor="start" x="169.41" y="-479.68" font-family="Arial" font-size="14.00">DATETIME</text>
<polygon fill="none" stroke="#6a7a89" points="244.66,-469.68 244.66,-499.43 284.16,-499.43 284.16,-469.68 244.66,-469.68"/>
<text xml:space="preserve" text-anchor="start" x="251.66" y="-480.81" font-family="Arial" font-size="10.00">DEF</text>
</g>
<!-- vol_announcement_activity&#45;&gt;vol_announcement -->
<g id="edge1" class="edge">
<title>vol_announcement_activity:announcement_id&#45;&gt;vol_announcement:id</title>
<path fill="none" stroke="#4f6f52" stroke-dasharray="5,2" d="M31.16,-544.06C14.63,-544.06 20.39,-606.83 32.16,-618.43 72.02,-657.77 230.49,-634.43 284.16,-618.43 419.86,-578 462.71,-554.93 550.78,-444.06 575.35,-413.14 546.15,-362.23 575.53,-354.84"/>
<polygon fill="#4f6f52" stroke="#4f6f52" points="575.59,-357.3 582.28,-354.1 575.05,-352.43 575.59,-357.3"/>
<text xml:space="preserve" text-anchor="middle" x="444.28" y="-602.75" font-family="Arial" font-size="10.00">announcement activity mapping; no DB FK</text>
</g>
<!-- vol_announcement_activity&#45;&gt;vol_announcement_activity_projection -->
<g id="edge4" class="edge">
<title>vol_announcement_activity:activity_id&#45;&gt;vol_announcement_activity_projection:id</title>
<path fill="none" stroke="#4f6f52" stroke-dasharray="5,2" d="M31.16,-514.31C11.32,-514.31 17.97,-483.55 32.16,-469.68 72.2,-430.53 228.16,-469.35 284.16,-469.68 631.19,-471.78 720,-479.07 1062.88,-479.18"/>
<polygon fill="#4f6f52" stroke="#4f6f52" points="1062.77,-481.63 1069.77,-479.18 1062.77,-476.73 1062.77,-481.63"/>
<text xml:space="preserve" text-anchor="middle" x="714.28" y="-480.38" font-family="Arial" font-size="10.00">local activity projection; no DB FK</text>
</g>
<!-- vol_announcement_attachment -->
<g id="node3" class="node">
<title>vol_announcement_attachment</title>
<polygon fill="#24415f" stroke="none" points="11.53,-398.18 11.53,-427.93 304.78,-427.93 304.78,-398.18 11.53,-398.18"/>
<polygon fill="none" stroke="#6a7a89" points="11.53,-398.18 11.53,-427.93 304.78,-427.93 304.78,-398.18 11.53,-398.18"/>
<text xml:space="preserve" text-anchor="start" x="56.16" y="-408.63" font-family="Arial" font-weight="bold" font-size="14.00" fill="white">vol_announcement_attachment</text>
<polygon fill="none" stroke="#6a7a89" points="11.53,-368.43 11.53,-398.18 141.78,-398.18 141.78,-368.43 11.53,-368.43"/>
<text xml:space="preserve" text-anchor="start" x="18.53" y="-378.88" font-family="Arial" font-weight="bold" font-size="14.00">id</text>
<polygon fill="none" stroke="#6a7a89" points="141.78,-368.43 141.78,-398.18 252.53,-398.18 252.53,-368.43 141.78,-368.43"/>
<text xml:space="preserve" text-anchor="start" x="148.78" y="-378.43" font-family="Arial" font-size="14.00">BIGINT</text>
<polygon fill="none" stroke="#6a7a89" points="252.53,-368.43 252.53,-398.18 304.78,-398.18 304.78,-368.43 252.53,-368.43"/>
<text xml:space="preserve" text-anchor="start" x="259.53" y="-379.56" font-family="Arial" font-size="10.00">PK AI</text>
<polygon fill="none" stroke="#6a7a89" points="11.53,-338.68 11.53,-368.43 141.78,-368.43 141.78,-338.68 11.53,-338.68"/>
<text xml:space="preserve" text-anchor="start" x="18.53" y="-349.13" font-family="Arial" font-weight="bold" font-size="14.00">announcement_id</text>
<polygon fill="none" stroke="#6a7a89" points="141.78,-338.68 141.78,-368.43 252.53,-368.43 252.53,-338.68 141.78,-338.68"/>
<text xml:space="preserve" text-anchor="start" x="148.78" y="-348.68" font-family="Arial" font-size="14.00">BIGINT</text>
<polygon fill="none" stroke="#6a7a89" points="252.53,-338.68 252.53,-368.43 304.78,-368.43 304.78,-338.68 252.53,-338.68"/>
<text xml:space="preserve" text-anchor="start" x="259.53" y="-349.81" font-family="Arial" font-size="10.00">NN</text>
<polygon fill="none" stroke="#6a7a89" points="11.53,-308.93 11.53,-338.68 141.78,-338.68 141.78,-308.93 11.53,-308.93"/>
<text xml:space="preserve" text-anchor="start" x="18.53" y="-319.38" font-family="Arial" font-weight="bold" font-size="14.00">object_key</text>
<polygon fill="none" stroke="#6a7a89" points="141.78,-308.93 141.78,-338.68 252.53,-338.68 252.53,-308.93 141.78,-308.93"/>
<text xml:space="preserve" text-anchor="start" x="148.78" y="-318.93" font-family="Arial" font-size="14.00">VARCHAR(512)</text>
<polygon fill="none" stroke="#6a7a89" points="252.53,-308.93 252.53,-338.68 304.78,-338.68 304.78,-308.93 252.53,-308.93"/>
<text xml:space="preserve" text-anchor="start" x="259.53" y="-320.06" font-family="Arial" font-size="10.00">NN</text>
<polygon fill="none" stroke="#6a7a89" points="11.53,-279.18 11.53,-308.93 141.78,-308.93 141.78,-279.18 11.53,-279.18"/>
<text xml:space="preserve" text-anchor="start" x="18.53" y="-289.63" font-family="Arial" font-weight="bold" font-size="14.00">original_name</text>
<polygon fill="none" stroke="#6a7a89" points="141.78,-279.18 141.78,-308.93 252.53,-308.93 252.53,-279.18 141.78,-279.18"/>
<text xml:space="preserve" text-anchor="start" x="148.78" y="-289.18" font-family="Arial" font-size="14.00">VARCHAR(255)</text>
<polygon fill="none" stroke="#6a7a89" points="252.53,-279.18 252.53,-308.93 304.78,-308.93 304.78,-279.18 252.53,-279.18"/>
<text xml:space="preserve" text-anchor="start" x="259.53" y="-290.31" font-family="Arial" font-size="10.00">NN</text>
<polygon fill="none" stroke="#6a7a89" points="11.53,-249.43 11.53,-279.18 141.78,-279.18 141.78,-249.43 11.53,-249.43"/>
<text xml:space="preserve" text-anchor="start" x="18.53" y="-259.88" font-family="Arial" font-weight="bold" font-size="14.00">content_type</text>
<polygon fill="none" stroke="#6a7a89" points="141.78,-249.43 141.78,-279.18 252.53,-279.18 252.53,-249.43 141.78,-249.43"/>
<text xml:space="preserve" text-anchor="start" x="148.78" y="-259.43" font-family="Arial" font-size="14.00">VARCHAR(120)</text>
<polygon fill="none" stroke="#6a7a89" points="252.53,-249.43 252.53,-279.18 304.78,-279.18 304.78,-249.43 252.53,-249.43"/>
<text xml:space="preserve" text-anchor="start" x="259.53" y="-260.56" font-family="Arial" font-size="10.00"> </text>
<polygon fill="none" stroke="#6a7a89" points="11.53,-219.68 11.53,-249.43 141.78,-249.43 141.78,-219.68 11.53,-219.68"/>
<text xml:space="preserve" text-anchor="start" x="18.53" y="-230.13" font-family="Arial" font-weight="bold" font-size="14.00">file_size</text>
<polygon fill="none" stroke="#6a7a89" points="141.78,-219.68 141.78,-249.43 252.53,-249.43 252.53,-219.68 141.78,-219.68"/>
<text xml:space="preserve" text-anchor="start" x="148.78" y="-229.68" font-family="Arial" font-size="14.00">BIGINT</text>
<polygon fill="none" stroke="#6a7a89" points="252.53,-219.68 252.53,-249.43 304.78,-249.43 304.78,-219.68 252.53,-219.68"/>
<text xml:space="preserve" text-anchor="start" x="259.53" y="-230.81" font-family="Arial" font-size="10.00">NN DEF</text>
<polygon fill="none" stroke="#6a7a89" points="11.53,-189.93 11.53,-219.68 141.78,-219.68 141.78,-189.93 11.53,-189.93"/>
<text xml:space="preserve" text-anchor="start" x="18.53" y="-200.38" font-family="Arial" font-weight="bold" font-size="14.00">sort_order</text>
<polygon fill="none" stroke="#6a7a89" points="141.78,-189.93 141.78,-219.68 252.53,-219.68 252.53,-189.93 141.78,-189.93"/>
<text xml:space="preserve" text-anchor="start" x="148.78" y="-199.93" font-family="Arial" font-size="14.00">INT</text>
<polygon fill="none" stroke="#6a7a89" points="252.53,-189.93 252.53,-219.68 304.78,-219.68 304.78,-189.93 252.53,-189.93"/>
<text xml:space="preserve" text-anchor="start" x="259.53" y="-201.06" font-family="Arial" font-size="10.00">NN DEF</text>
<polygon fill="none" stroke="#6a7a89" points="11.53,-160.18 11.53,-189.93 141.78,-189.93 141.78,-160.18 11.53,-160.18"/>
<text xml:space="preserve" text-anchor="start" x="18.53" y="-170.63" font-family="Arial" font-weight="bold" font-size="14.00">create_time</text>
<polygon fill="none" stroke="#6a7a89" points="141.78,-160.18 141.78,-189.93 252.53,-189.93 252.53,-160.18 141.78,-160.18"/>
<text xml:space="preserve" text-anchor="start" x="148.78" y="-170.18" font-family="Arial" font-size="14.00">DATETIME</text>
<polygon fill="none" stroke="#6a7a89" points="252.53,-160.18 252.53,-189.93 304.78,-189.93 304.78,-160.18 252.53,-160.18"/>
<text xml:space="preserve" text-anchor="start" x="259.53" y="-171.31" font-family="Arial" font-size="10.00">DEF</text>
</g>
<!-- vol_announcement_attachment&#45;&gt;vol_announcement -->
<g id="edge2" class="edge">
<title>vol_announcement_attachment:announcement_id&#45;&gt;vol_announcement:id</title>
<path fill="none" stroke="#4f6f52" stroke-dasharray="5,2" d="M10.53,-353.56C-6,-353.56 -0.23,-416.33 11.53,-427.93 57.92,-473.7 240.16,-436.36 304.78,-427.93 429.14,-411.72 454.39,-356.49 575.3,-354.02"/>
<polygon fill="#4f6f52" stroke="#4f6f52" points="575.3,-356.47 582.27,-353.95 575.25,-351.57 575.3,-356.47"/>
<text xml:space="preserve" text-anchor="middle" x="444.28" y="-424.33" font-family="Arial" font-size="10.00">attachment belongs to announcement; no DB FK</text>
</g>
<!-- mq_consume_record -->
<g id="node5" class="node">
<title>mq_consume_record</title>
<polygon fill="#24415f" stroke="none" points="15.28,-807.56 15.28,-837.31 301.03,-837.31 301.03,-807.56 15.28,-807.56"/>
<polygon fill="none" stroke="#6a7a89" points="15.28,-807.56 15.28,-837.31 301.03,-837.31 301.03,-807.56 15.28,-807.56"/>
<text xml:space="preserve" text-anchor="start" x="89.16" y="-818.01" font-family="Arial" font-weight="bold" font-size="14.00" fill="white">mq_consume_record</text>
<polygon fill="none" stroke="#6a7a89" points="15.28,-777.81 15.28,-807.56 138.03,-807.56 138.03,-777.81 15.28,-777.81"/>
<text xml:space="preserve" text-anchor="start" x="22.28" y="-788.26" font-family="Arial" font-weight="bold" font-size="14.00">id</text>
<polygon fill="none" stroke="#6a7a89" points="138.03,-777.81 138.03,-807.56 248.78,-807.56 248.78,-777.81 138.03,-777.81"/>
<text xml:space="preserve" text-anchor="start" x="145.03" y="-787.81" font-family="Arial" font-size="14.00">BIGINT</text>
<polygon fill="none" stroke="#6a7a89" points="248.78,-777.81 248.78,-807.56 301.03,-807.56 301.03,-777.81 248.78,-777.81"/>
<text xml:space="preserve" text-anchor="start" x="255.78" y="-788.93" font-family="Arial" font-size="10.00">PK AI</text>
<polygon fill="none" stroke="#6a7a89" points="15.28,-748.06 15.28,-777.81 138.03,-777.81 138.03,-748.06 15.28,-748.06"/>
<text xml:space="preserve" text-anchor="start" x="22.28" y="-758.51" font-family="Arial" font-weight="bold" font-size="14.00">message_id</text>
<polygon fill="none" stroke="#6a7a89" points="138.03,-748.06 138.03,-777.81 248.78,-777.81 248.78,-748.06 138.03,-748.06"/>
<text xml:space="preserve" text-anchor="start" x="145.03" y="-758.06" font-family="Arial" font-size="14.00">VARCHAR(64)</text>
<polygon fill="none" stroke="#6a7a89" points="248.78,-748.06 248.78,-777.81 301.03,-777.81 301.03,-748.06 248.78,-748.06"/>
<text xml:space="preserve" text-anchor="start" x="255.78" y="-759.18" font-family="Arial" font-size="10.00">NN</text>
<polygon fill="none" stroke="#6a7a89" points="15.28,-718.31 15.28,-748.06 138.03,-748.06 138.03,-718.31 15.28,-718.31"/>
<text xml:space="preserve" text-anchor="start" x="22.28" y="-728.76" font-family="Arial" font-weight="bold" font-size="14.00">consumer_name</text>
<polygon fill="none" stroke="#6a7a89" points="138.03,-718.31 138.03,-748.06 248.78,-748.06 248.78,-718.31 138.03,-718.31"/>
<text xml:space="preserve" text-anchor="start" x="145.03" y="-728.31" font-family="Arial" font-size="14.00">VARCHAR(120)</text>
<polygon fill="none" stroke="#6a7a89" points="248.78,-718.31 248.78,-748.06 301.03,-748.06 301.03,-718.31 248.78,-718.31"/>
<text xml:space="preserve" text-anchor="start" x="255.78" y="-729.43" font-family="Arial" font-size="10.00">NN</text>
<polygon fill="none" stroke="#6a7a89" points="15.28,-688.56 15.28,-718.31 138.03,-718.31 138.03,-688.56 15.28,-688.56"/>
<text xml:space="preserve" text-anchor="start" x="22.28" y="-699.01" font-family="Arial" font-weight="bold" font-size="14.00">status</text>
<polygon fill="none" stroke="#6a7a89" points="138.03,-688.56 138.03,-718.31 248.78,-718.31 248.78,-688.56 138.03,-688.56"/>
<text xml:space="preserve" text-anchor="start" x="145.03" y="-698.56" font-family="Arial" font-size="14.00">VARCHAR(20)</text>
<polygon fill="none" stroke="#6a7a89" points="248.78,-688.56 248.78,-718.31 301.03,-718.31 301.03,-688.56 248.78,-688.56"/>
<text xml:space="preserve" text-anchor="start" x="255.78" y="-699.68" font-family="Arial" font-size="10.00">NN DEF</text>
<polygon fill="none" stroke="#6a7a89" points="15.28,-658.81 15.28,-688.56 138.03,-688.56 138.03,-658.81 15.28,-658.81"/>
<text xml:space="preserve" text-anchor="start" x="22.28" y="-669.26" font-family="Arial" font-weight="bold" font-size="14.00">consumed_at</text>
<polygon fill="none" stroke="#6a7a89" points="138.03,-658.81 138.03,-688.56 248.78,-688.56 248.78,-658.81 138.03,-658.81"/>
<text xml:space="preserve" text-anchor="start" x="145.03" y="-668.81" font-family="Arial" font-size="14.00">DATETIME</text>
<polygon fill="none" stroke="#6a7a89" points="248.78,-658.81 248.78,-688.56 301.03,-688.56 301.03,-658.81 248.78,-658.81"/>
<text xml:space="preserve" text-anchor="start" x="255.78" y="-669.93" font-family="Arial" font-size="10.00">NN DEF</text>
</g>
<!-- event_outbox -->
<g id="node6" class="node">
<title>event_outbox</title>
<polygon fill="#24415f" stroke="none" points="19.03,-1204.81 19.03,-1234.56 297.28,-1234.56 297.28,-1204.81 19.03,-1204.81"/>
<polygon fill="none" stroke="#6a7a89" points="19.03,-1204.81 19.03,-1234.56 297.28,-1234.56 297.28,-1204.81 19.03,-1204.81"/>
<text xml:space="preserve" text-anchor="start" x="114.28" y="-1215.26" font-family="Arial" font-weight="bold" font-size="14.00" fill="white">event_outbox</text>
<polygon fill="none" stroke="#6a7a89" points="19.03,-1175.06 19.03,-1204.81 134.28,-1204.81 134.28,-1175.06 19.03,-1175.06"/>
<text xml:space="preserve" text-anchor="start" x="26.03" y="-1185.51" font-family="Arial" font-weight="bold" font-size="14.00">id</text>
<polygon fill="none" stroke="#6a7a89" points="134.28,-1175.06 134.28,-1204.81 245.03,-1204.81 245.03,-1175.06 134.28,-1175.06"/>
<text xml:space="preserve" text-anchor="start" x="141.28" y="-1185.06" font-family="Arial" font-size="14.00">BIGINT</text>
<polygon fill="none" stroke="#6a7a89" points="245.03,-1175.06 245.03,-1204.81 297.28,-1204.81 297.28,-1175.06 245.03,-1175.06"/>
<text xml:space="preserve" text-anchor="start" x="252.03" y="-1186.18" font-family="Arial" font-size="10.00">PK AI</text>
<polygon fill="none" stroke="#6a7a89" points="19.03,-1145.31 19.03,-1175.06 134.28,-1175.06 134.28,-1145.31 19.03,-1145.31"/>
<text xml:space="preserve" text-anchor="start" x="26.03" y="-1155.76" font-family="Arial" font-weight="bold" font-size="14.00">message_id</text>
<polygon fill="none" stroke="#6a7a89" points="134.28,-1145.31 134.28,-1175.06 245.03,-1175.06 245.03,-1145.31 134.28,-1145.31"/>
<text xml:space="preserve" text-anchor="start" x="141.28" y="-1155.31" font-family="Arial" font-size="14.00">VARCHAR(64)</text>
<polygon fill="none" stroke="#6a7a89" points="245.03,-1145.31 245.03,-1175.06 297.28,-1175.06 297.28,-1145.31 245.03,-1145.31"/>
<text xml:space="preserve" text-anchor="start" x="252.03" y="-1156.43" font-family="Arial" font-size="10.00">NN</text>
<polygon fill="none" stroke="#6a7a89" points="19.03,-1115.56 19.03,-1145.31 134.28,-1145.31 134.28,-1115.56 19.03,-1115.56"/>
<text xml:space="preserve" text-anchor="start" x="26.03" y="-1126.01" font-family="Arial" font-weight="bold" font-size="14.00">event_type</text>
<polygon fill="none" stroke="#6a7a89" points="134.28,-1115.56 134.28,-1145.31 245.03,-1145.31 245.03,-1115.56 134.28,-1115.56"/>
<text xml:space="preserve" text-anchor="start" x="141.28" y="-1125.56" font-family="Arial" font-size="14.00">VARCHAR(100)</text>
<polygon fill="none" stroke="#6a7a89" points="245.03,-1115.56 245.03,-1145.31 297.28,-1145.31 297.28,-1115.56 245.03,-1115.56"/>
<text xml:space="preserve" text-anchor="start" x="252.03" y="-1126.68" font-family="Arial" font-size="10.00">NN</text>
<polygon fill="none" stroke="#6a7a89" points="19.03,-1085.81 19.03,-1115.56 134.28,-1115.56 134.28,-1085.81 19.03,-1085.81"/>
<text xml:space="preserve" text-anchor="start" x="26.03" y="-1096.26" font-family="Arial" font-weight="bold" font-size="14.00">aggregate_type</text>
<polygon fill="none" stroke="#6a7a89" points="134.28,-1085.81 134.28,-1115.56 245.03,-1115.56 245.03,-1085.81 134.28,-1085.81"/>
<text xml:space="preserve" text-anchor="start" x="141.28" y="-1095.81" font-family="Arial" font-size="14.00">VARCHAR(100)</text>
<polygon fill="none" stroke="#6a7a89" points="245.03,-1085.81 245.03,-1115.56 297.28,-1115.56 297.28,-1085.81 245.03,-1085.81"/>
<text xml:space="preserve" text-anchor="start" x="252.03" y="-1096.93" font-family="Arial" font-size="10.00">NN</text>
<polygon fill="none" stroke="#6a7a89" points="19.03,-1056.06 19.03,-1085.81 134.28,-1085.81 134.28,-1056.06 19.03,-1056.06"/>
<text xml:space="preserve" text-anchor="start" x="26.03" y="-1066.51" font-family="Arial" font-weight="bold" font-size="14.00">aggregate_id</text>
<polygon fill="none" stroke="#6a7a89" points="134.28,-1056.06 134.28,-1085.81 245.03,-1085.81 245.03,-1056.06 134.28,-1056.06"/>
<text xml:space="preserve" text-anchor="start" x="141.28" y="-1066.06" font-family="Arial" font-size="14.00">VARCHAR(100)</text>
<polygon fill="none" stroke="#6a7a89" points="245.03,-1056.06 245.03,-1085.81 297.28,-1085.81 297.28,-1056.06 245.03,-1056.06"/>
<text xml:space="preserve" text-anchor="start" x="252.03" y="-1067.18" font-family="Arial" font-size="10.00">NN</text>
<polygon fill="none" stroke="#6a7a89" points="19.03,-1026.31 19.03,-1056.06 134.28,-1056.06 134.28,-1026.31 19.03,-1026.31"/>
<text xml:space="preserve" text-anchor="start" x="26.03" y="-1036.76" font-family="Arial" font-weight="bold" font-size="14.00">payload_json</text>
<polygon fill="none" stroke="#6a7a89" points="134.28,-1026.31 134.28,-1056.06 245.03,-1056.06 245.03,-1026.31 134.28,-1026.31"/>
<text xml:space="preserve" text-anchor="start" x="141.28" y="-1036.31" font-family="Arial" font-size="14.00">LONGTEXT</text>
<polygon fill="none" stroke="#6a7a89" points="245.03,-1026.31 245.03,-1056.06 297.28,-1056.06 297.28,-1026.31 245.03,-1026.31"/>
<text xml:space="preserve" text-anchor="start" x="252.03" y="-1037.43" font-family="Arial" font-size="10.00">NN</text>
<polygon fill="none" stroke="#6a7a89" points="19.03,-996.56 19.03,-1026.31 134.28,-1026.31 134.28,-996.56 19.03,-996.56"/>
<text xml:space="preserve" text-anchor="start" x="26.03" y="-1007.01" font-family="Arial" font-weight="bold" font-size="14.00">status</text>
<polygon fill="none" stroke="#6a7a89" points="134.28,-996.56 134.28,-1026.31 245.03,-1026.31 245.03,-996.56 134.28,-996.56"/>
<text xml:space="preserve" text-anchor="start" x="141.28" y="-1006.56" font-family="Arial" font-size="14.00">VARCHAR(20)</text>
<polygon fill="none" stroke="#6a7a89" points="245.03,-996.56 245.03,-1026.31 297.28,-1026.31 297.28,-996.56 245.03,-996.56"/>
<text xml:space="preserve" text-anchor="start" x="252.03" y="-1007.68" font-family="Arial" font-size="10.00">NN DEF</text>
<polygon fill="none" stroke="#6a7a89" points="19.03,-966.81 19.03,-996.56 134.28,-996.56 134.28,-966.81 19.03,-966.81"/>
<text xml:space="preserve" text-anchor="start" x="26.03" y="-977.26" font-family="Arial" font-weight="bold" font-size="14.00">retry_count</text>
<polygon fill="none" stroke="#6a7a89" points="134.28,-966.81 134.28,-996.56 245.03,-996.56 245.03,-966.81 134.28,-966.81"/>
<text xml:space="preserve" text-anchor="start" x="141.28" y="-976.81" font-family="Arial" font-size="14.00">INT</text>
<polygon fill="none" stroke="#6a7a89" points="245.03,-966.81 245.03,-996.56 297.28,-996.56 297.28,-966.81 245.03,-966.81"/>
<text xml:space="preserve" text-anchor="start" x="252.03" y="-977.93" font-family="Arial" font-size="10.00">NN DEF</text>
<polygon fill="none" stroke="#6a7a89" points="19.03,-937.06 19.03,-966.81 134.28,-966.81 134.28,-937.06 19.03,-937.06"/>
<text xml:space="preserve" text-anchor="start" x="26.03" y="-947.51" font-family="Arial" font-weight="bold" font-size="14.00">next_retry_time</text>
<polygon fill="none" stroke="#6a7a89" points="134.28,-937.06 134.28,-966.81 245.03,-966.81 245.03,-937.06 134.28,-937.06"/>
<text xml:space="preserve" text-anchor="start" x="141.28" y="-947.06" font-family="Arial" font-size="14.00">DATETIME</text>
<polygon fill="none" stroke="#6a7a89" points="245.03,-937.06 245.03,-966.81 297.28,-966.81 297.28,-937.06 245.03,-937.06"/>
<text xml:space="preserve" text-anchor="start" x="252.03" y="-948.18" font-family="Arial" font-size="10.00">NN DEF</text>
<polygon fill="none" stroke="#6a7a89" points="19.03,-907.31 19.03,-937.06 134.28,-937.06 134.28,-907.31 19.03,-907.31"/>
<text xml:space="preserve" text-anchor="start" x="26.03" y="-917.76" font-family="Arial" font-weight="bold" font-size="14.00">created_at</text>
<polygon fill="none" stroke="#6a7a89" points="134.28,-907.31 134.28,-937.06 245.03,-937.06 245.03,-907.31 134.28,-907.31"/>
<text xml:space="preserve" text-anchor="start" x="141.28" y="-917.31" font-family="Arial" font-size="14.00">DATETIME</text>
<polygon fill="none" stroke="#6a7a89" points="245.03,-907.31 245.03,-937.06 297.28,-937.06 297.28,-907.31 245.03,-907.31"/>
<text xml:space="preserve" text-anchor="start" x="252.03" y="-918.43" font-family="Arial" font-size="10.00">NN DEF</text>
<polygon fill="none" stroke="#6a7a89" points="19.03,-877.56 19.03,-907.31 134.28,-907.31 134.28,-877.56 19.03,-877.56"/>
<text xml:space="preserve" text-anchor="start" x="26.03" y="-888.01" font-family="Arial" font-weight="bold" font-size="14.00">sent_at</text>
<polygon fill="none" stroke="#6a7a89" points="134.28,-877.56 134.28,-907.31 245.03,-907.31 245.03,-877.56 134.28,-877.56"/>
<text xml:space="preserve" text-anchor="start" x="141.28" y="-887.56" font-family="Arial" font-size="14.00">DATETIME</text>
<polygon fill="none" stroke="#6a7a89" points="245.03,-877.56 245.03,-907.31 297.28,-907.31 297.28,-877.56 245.03,-877.56"/>
<text xml:space="preserve" text-anchor="start" x="252.03" y="-888.68" font-family="Arial" font-size="10.00"> </text>
</g>
</g>
</svg>
