<?xml version="1.0" encoding="UTF-8" standalone="no"?>
<!DOCTYPE svg PUBLIC "-//W3C//DTD SVG 1.1//EN"
 "http://www.w3.org/Graphics/SVG/1.1/DTD/svg11.dtd">
<!-- Generated by graphviz version 14.1.4 (20260321.0153)
 -->
<!-- Title: ER Pages: 1 -->
<svg width="1829pt" height="1197pt"
 viewBox="0.00 0.00 1829.00 1197.00" xmlns="http://www.w3.org/2000/svg" xmlns:xlink="http://www.w3.org/1999/xlink">
<g id="graph0" class="graph" transform="scale(1 1) rotate(0) translate(25.2 1171.71)">
<title>ER</title>
<polygon fill="white" stroke="none" points="-25.2,25.2 -25.2,-1171.71 1803.59,-1171.71 1803.59,25.2 -25.2,25.2"/>
<text xml:space="preserve" text-anchor="middle" x="889.19" y="-1129.21" font-family="Times New Roman,serif" font-size="14.00">feedback&#45;service</text>
<!-- feedback -->
<g id="node1" class="node">
<title>feedback</title>
<polygon fill="#24415f" stroke="none" points="1057.64,-494.26 1057.64,-524.01 1359.89,-524.01 1359.89,-494.26 1057.64,-494.26"/>
<polygon fill="none" stroke="#6a7a89" points="1057.64,-494.26 1057.64,-524.01 1359.89,-524.01 1359.89,-494.26 1057.64,-494.26"/>
<text xml:space="preserve" text-anchor="start" x="1179.51" y="-504.71" font-family="Arial" font-weight="bold" font-size="14.00" fill="white">feedback</text>
<polygon fill="none" stroke="#6a7a89" points="1057.64,-464.51 1057.64,-494.26 1196.89,-494.26 1196.89,-464.51 1057.64,-464.51"/>
<text xml:space="preserve" text-anchor="start" x="1064.64" y="-474.96" font-family="Arial" font-weight="bold" font-size="14.00">id</text>
<polygon fill="none" stroke="#6a7a89" points="1196.89,-464.51 1196.89,-494.26 1307.64,-494.26 1307.64,-464.51 1196.89,-464.51"/>
<text xml:space="preserve" text-anchor="start" x="1203.89" y="-474.51" font-family="Arial" font-size="14.00">BIGINT</text>
<polygon fill="none" stroke="#6a7a89" points="1307.64,-464.51 1307.64,-494.26 1359.89,-494.26 1359.89,-464.51 1307.64,-464.51"/>
<text xml:space="preserve" text-anchor="start" x="1314.64" y="-475.64" font-family="Arial" font-size="10.00">PK AI</text>
<polygon fill="none" stroke="#6a7a89" points="1057.64,-434.76 1057.64,-464.51 1196.89,-464.51 1196.89,-434.76 1057.64,-434.76"/>
<text xml:space="preserve" text-anchor="start" x="1064.64" y="-445.21" font-family="Arial" font-weight="bold" font-size="14.00">user_id</text>
<polygon fill="none" stroke="#6a7a89" points="1196.89,-434.76 1196.89,-464.51 1307.64,-464.51 1307.64,-434.76 1196.89,-434.76"/>
<text xml:space="preserve" text-anchor="start" x="1203.89" y="-444.76" font-family="Arial" font-size="14.00">BIGINT</text>
<polygon fill="none" stroke="#6a7a89" points="1307.64,-434.76 1307.64,-464.51 1359.89,-464.51 1359.89,-434.76 1307.64,-434.76"/>
<text xml:space="preserve" text-anchor="start" x="1314.64" y="-445.89" font-family="Arial" font-size="10.00">NN</text>
<polygon fill="none" stroke="#6a7a89" points="1057.64,-405.01 1057.64,-434.76 1196.89,-434.76 1196.89,-405.01 1057.64,-405.01"/>
<text xml:space="preserve" text-anchor="start" x="1064.64" y="-415.46" font-family="Arial" font-weight="bold" font-size="14.00">title</text>
<polygon fill="none" stroke="#6a7a89" points="1196.89,-405.01 1196.89,-434.76 1307.64,-434.76 1307.64,-405.01 1196.89,-405.01"/>
<text xml:space="preserve" text-anchor="start" x="1203.89" y="-415.01" font-family="Arial" font-size="14.00">VARCHAR(200)</text>
<polygon fill="none" stroke="#6a7a89" points="1307.64,-405.01 1307.64,-434.76 1359.89,-434.76 1359.89,-405.01 1307.64,-405.01"/>
<text xml:space="preserve" text-anchor="start" x="1314.64" y="-416.14" font-family="Arial" font-size="10.00">NN</text>
<polygon fill="none" stroke="#6a7a89" points="1057.64,-375.26 1057.64,-405.01 1196.89,-405.01 1196.89,-375.26 1057.64,-375.26"/>
<text xml:space="preserve" text-anchor="start" x="1064.64" y="-385.71" font-family="Arial" font-weight="bold" font-size="14.00">category</text>
<polygon fill="none" stroke="#6a7a89" points="1196.89,-375.26 1196.89,-405.01 1307.64,-405.01 1307.64,-375.26 1196.89,-375.26"/>
<text xml:space="preserve" text-anchor="start" x="1203.89" y="-385.26" font-family="Arial" font-size="14.00">VARCHAR(30)</text>
<polygon fill="none" stroke="#6a7a89" points="1307.64,-375.26 1307.64,-405.01 1359.89,-405.01 1359.89,-375.26 1307.64,-375.26"/>
<text xml:space="preserve" text-anchor="start" x="1314.64" y="-386.39" font-family="Arial" font-size="10.00">NN</text>
<polygon fill="none" stroke="#6a7a89" points="1057.64,-345.51 1057.64,-375.26 1196.89,-375.26 1196.89,-345.51 1057.64,-345.51"/>
<text xml:space="preserve" text-anchor="start" x="1064.64" y="-355.96" font-family="Arial" font-weight="bold" font-size="14.00">status</text>
<polygon fill="none" stroke="#6a7a89" points="1196.89,-345.51 1196.89,-375.26 1307.64,-375.26 1307.64,-345.51 1196.89,-345.51"/>
<text xml:space="preserve" text-anchor="start" x="1203.89" y="-355.51" font-family="Arial" font-size="14.00">VARCHAR(30)</text>
<polygon fill="none" stroke="#6a7a89" points="1307.64,-345.51 1307.64,-375.26 1359.89,-375.26 1359.89,-345.51 1307.64,-345.51"/>
<text xml:space="preserve" text-anchor="start" x="1314.64" y="-356.64" font-family="Arial" font-size="10.00">NN DEF</text>
<polygon fill="none" stroke="#6a7a89" points="1057.64,-315.76 1057.64,-345.51 1196.89,-345.51 1196.89,-315.76 1057.64,-315.76"/>
<text xml:space="preserve" text-anchor="start" x="1064.64" y="-326.21" font-family="Arial" font-weight="bold" font-size="14.00">priority</text>
<polygon fill="none" stroke="#6a7a89" points="1196.89,-315.76 1196.89,-345.51 1307.64,-345.51 1307.64,-315.76 1196.89,-315.76"/>
<text xml:space="preserve" text-anchor="start" x="1203.89" y="-325.76" font-family="Arial" font-size="14.00">VARCHAR(20)</text>
<polygon fill="none" stroke="#6a7a89" points="1307.64,-315.76 1307.64,-345.51 1359.89,-345.51 1359.89,-315.76 1307.64,-315.76"/>
<text xml:space="preserve" text-anchor="start" x="1314.64" y="-326.89" font-family="Arial" font-size="10.00">NN DEF</text>
<polygon fill="none" stroke="#6a7a89" points="1057.64,-286.01 1057.64,-315.76 1196.89,-315.76 1196.89,-286.01 1057.64,-286.01"/>
<text xml:space="preserve" text-anchor="start" x="1064.64" y="-296.46" font-family="Arial" font-weight="bold" font-size="14.00">last_message_time</text>
<polygon fill="none" stroke="#6a7a89" points="1196.89,-286.01 1196.89,-315.76 1307.64,-315.76 1307.64,-286.01 1196.89,-286.01"/>
<text xml:space="preserve" text-anchor="start" x="1203.89" y="-296.01" font-family="Arial" font-size="14.00">DATETIME</text>
<polygon fill="none" stroke="#6a7a89" points="1307.64,-286.01 1307.64,-315.76 1359.89,-315.76 1359.89,-286.01 1307.64,-286.01"/>
<text xml:space="preserve" text-anchor="start" x="1314.64" y="-297.14" font-family="Arial" font-size="10.00"> </text>
<polygon fill="none" stroke="#6a7a89" points="1057.64,-256.26 1057.64,-286.01 1196.89,-286.01 1196.89,-256.26 1057.64,-256.26"/>
<text xml:space="preserve" text-anchor="start" x="1064.64" y="-266.71" font-family="Arial" font-weight="bold" font-size="14.00">last_replier_role</text>
<polygon fill="none" stroke="#6a7a89" points="1196.89,-256.26 1196.89,-286.01 1307.64,-286.01 1307.64,-256.26 1196.89,-256.26"/>
<text xml:space="preserve" text-anchor="start" x="1203.89" y="-266.26" font-family="Arial" font-size="14.00">VARCHAR(20)</text>
<polygon fill="none" stroke="#6a7a89" points="1307.64,-256.26 1307.64,-286.01 1359.89,-286.01 1359.89,-256.26 1307.64,-256.26"/>
<text xml:space="preserve" text-anchor="start" x="1314.64" y="-267.39" font-family="Arial" font-size="10.00"> </text>
<polygon fill="none" stroke="#6a7a89" points="1057.64,-226.51 1057.64,-256.26 1196.89,-256.26 1196.89,-226.51 1057.64,-226.51"/>
<text xml:space="preserve" text-anchor="start" x="1064.64" y="-236.96" font-family="Arial" font-weight="bold" font-size="14.00">closed_by</text>
<polygon fill="none" stroke="#6a7a89" points="1196.89,-226.51 1196.89,-256.26 1307.64,-256.26 1307.64,-226.51 1196.89,-226.51"/>
<text xml:space="preserve" text-anchor="start" x="1203.89" y="-236.51" font-family="Arial" font-size="14.00">BIGINT</text>
<polygon fill="none" stroke="#6a7a89" points="1307.64,-226.51 1307.64,-256.26 1359.89,-256.26 1359.89,-226.51 1307.64,-226.51"/>
<text xml:space="preserve" text-anchor="start" x="1314.64" y="-237.64" font-family="Arial" font-size="10.00"> </text>
<polygon fill="none" stroke="#6a7a89" points="1057.64,-196.76 1057.64,-226.51 1196.89,-226.51 1196.89,-196.76 1057.64,-196.76"/>
<text xml:space="preserve" text-anchor="start" x="1064.64" y="-207.21" font-family="Arial" font-weight="bold" font-size="14.00">closed_time</text>
<polygon fill="none" stroke="#6a7a89" points="1196.89,-196.76 1196.89,-226.51 1307.64,-226.51 1307.64,-196.76 1196.89,-196.76"/>
<text xml:space="preserve" text-anchor="start" x="1203.89" y="-206.76" font-family="Arial" font-size="14.00">DATETIME</text>
<polygon fill="none" stroke="#6a7a89" points="1307.64,-196.76 1307.64,-226.51 1359.89,-226.51 1359.89,-196.76 1307.64,-196.76"/>
<text xml:space="preserve" text-anchor="start" x="1314.64" y="-207.89" font-family="Arial" font-size="10.00"> </text>
<polygon fill="none" stroke="#6a7a89" points="1057.64,-167.01 1057.64,-196.76 1196.89,-196.76 1196.89,-167.01 1057.64,-167.01"/>
<text xml:space="preserve" text-anchor="start" x="1064.64" y="-177.46" font-family="Arial" font-weight="bold" font-size="14.00">reject_reason</text>
<polygon fill="none" stroke="#6a7a89" points="1196.89,-167.01 1196.89,-196.76 1307.64,-196.76 1307.64,-167.01 1196.89,-167.01"/>
<text xml:space="preserve" text-anchor="start" x="1203.89" y="-177.01" font-family="Arial" font-size="14.00">VARCHAR(500)</text>
<polygon fill="none" stroke="#6a7a89" points="1307.64,-167.01 1307.64,-196.76 1359.89,-196.76 1359.89,-167.01 1307.64,-167.01"/>
<text xml:space="preserve" text-anchor="start" x="1314.64" y="-178.14" font-family="Arial" font-size="10.00"> </text>
<polygon fill="none" stroke="#6a7a89" points="1057.64,-137.26 1057.64,-167.01 1196.89,-167.01 1196.89,-137.26 1057.64,-137.26"/>
<text xml:space="preserve" text-anchor="start" x="1064.64" y="-147.71" font-family="Arial" font-weight="bold" font-size="14.00">create_time</text>
<polygon fill="none" stroke="#6a7a89" points="1196.89,-137.26 1196.89,-167.01 1307.64,-167.01 1307.64,-137.26 1196.89,-137.26"/>
<text xml:space="preserve" text-anchor="start" x="1203.89" y="-147.26" font-family="Arial" font-size="14.00">DATETIME</text>
<polygon fill="none" stroke="#6a7a89" points="1307.64,-137.26 1307.64,-167.01 1359.89,-167.01 1359.89,-137.26 1307.64,-137.26"/>
<text xml:space="preserve" text-anchor="start" x="1314.64" y="-148.39" font-family="Arial" font-size="10.00">DEF</text>
<polygon fill="none" stroke="#6a7a89" points="1057.64,-107.51 1057.64,-137.26 1196.89,-137.26 1196.89,-107.51 1057.64,-107.51"/>
<text xml:space="preserve" text-anchor="start" x="1064.64" y="-117.96" font-family="Arial" font-weight="bold" font-size="14.00">update_time</text>
<polygon fill="none" stroke="#6a7a89" points="1196.89,-107.51 1196.89,-137.26 1307.64,-137.26 1307.64,-107.51 1196.89,-107.51"/>
<text xml:space="preserve" text-anchor="start" x="1203.89" y="-117.51" font-family="Arial" font-size="14.00">DATETIME</text>
<polygon fill="none" stroke="#6a7a89" points="1307.64,-107.51 1307.64,-137.26 1359.89,-137.26 1359.89,-107.51 1307.64,-107.51"/>
<text xml:space="preserve" text-anchor="start" x="1314.64" y="-118.64" font-family="Arial" font-size="10.00">DEF</text>
</g>
<!-- external_sys_user -->
<g id="node6" class="node">
<title>external_sys_user</title>
<polygon fill="#24415f" stroke="none" points="1582.64,-256.64 1582.64,-286.39 1778.39,-286.39 1778.39,-256.64 1582.64,-256.64"/>
<polygon fill="none" stroke="#6a7a89" points="1582.64,-256.64 1582.64,-286.39 1778.39,-286.39 1778.39,-256.64 1582.64,-256.64"/>
<text xml:space="preserve" text-anchor="start" x="1621.26" y="-267.09" font-family="Arial" font-weight="bold" font-size="14.00" fill="white">external: sys_user</text>
<polygon fill="none" stroke="#6a7a89" points="1582.64,-226.89 1582.64,-256.64 1663.39,-256.64 1663.39,-226.89 1582.64,-226.89"/>
<text xml:space="preserve" text-anchor="start" x="1589.64" y="-237.34" font-family="Arial" font-weight="bold" font-size="14.00">id</text>
<polygon fill="none" stroke="#6a7a89" points="1663.39,-226.89 1663.39,-256.64 1750.89,-256.64 1750.89,-226.89 1663.39,-226.89"/>
<text xml:space="preserve" text-anchor="start" x="1670.39" y="-236.89" font-family="Arial" font-size="14.00">BIGINT</text>
<polygon fill="none" stroke="#6a7a89" points="1750.89,-226.89 1750.89,-256.64 1778.39,-256.64 1778.39,-226.89 1750.89,-226.89"/>
<text xml:space="preserve" text-anchor="start" x="1757.89" y="-238.01" font-family="Arial" font-size="10.00">PK</text>
<polygon fill="none" stroke="#6a7a89" points="1582.64,-197.14 1582.64,-226.89 1663.39,-226.89 1663.39,-197.14 1582.64,-197.14"/>
<text xml:space="preserve" text-anchor="start" x="1589.64" y="-207.59" font-family="Arial" font-weight="bold" font-size="14.00">owned_by</text>
<polygon fill="none" stroke="#6a7a89" points="1663.39,-197.14 1663.39,-226.89 1750.89,-226.89 1750.89,-197.14 1663.39,-197.14"/>
<text xml:space="preserve" text-anchor="start" x="1670.39" y="-207.14" font-family="Arial" font-size="14.00">user&#45;service</text>
<polygon fill="none" stroke="#6a7a89" points="1750.89,-197.14 1750.89,-226.89 1778.39,-226.89 1778.39,-197.14 1750.89,-197.14"/>
<text xml:space="preserve" text-anchor="start" x="1757.89" y="-208.26" font-family="Arial" font-size="10.00"> </text>
</g>
<!-- feedback&#45;&gt;external_sys_user -->
<g id="edge4" class="edge">
<title>feedback:user_id&#45;&gt;external_sys_user:id</title>
<path fill="none" stroke="#9a6a2f" stroke-dasharray="5,2" d="M1056.64,-449.64C1040.11,-449.64 1045.87,-512.4 1057.64,-524.01 1153.26,-618.36 1239,-582.61 1359.89,-524.01 1393.73,-507.61 1525.86,-271.95 1574.56,-244.39"/>
<polygon fill="#9a6a2f" stroke="#9a6a2f" points="1575.3,-246.72 1581.2,-242.23 1573.78,-242.06 1575.3,-246.72"/>
<text xml:space="preserve" text-anchor="middle" x="1471.26" y="-490.47" font-family="Arial" font-size="10.00">cross&#45;service user id; no DB FK</text>
</g>
<!-- feedback&#45;&gt;external_sys_user -->
<g id="edge6" class="edge">
<title>feedback:closed_by&#45;&gt;external_sys_user:id</title>
<path fill="none" stroke="#9a6a2f" stroke-dasharray="5,2" d="M1056.64,-241.39C1041.76,-241.39 1047.08,-117.99 1057.64,-107.51 1105.31,-60.2 1295.17,-89.52 1359.89,-107.51 1468.53,-137.72 1467.18,-236.76 1574.38,-241.58"/>
<polygon fill="#9a6a2f" stroke="#9a6a2f" points="1574.07,-244.03 1581.12,-241.73 1574.18,-239.13 1574.07,-244.03"/>
<text xml:space="preserve" text-anchor="middle" x="1471.26" y="-240.33" font-family="Arial" font-size="10.00">cross&#45;service operator id; no DB FK</text>
</g>
<!-- feedback_message -->
<g id="node2" class="node">
<title>feedback_message</title>
<polygon fill="#24415f" stroke="none" points="548.39,-369.01 548.39,-398.76 811.64,-398.76 811.64,-369.01 548.39,-369.01"/>
<polygon fill="none" stroke="#6a7a89" points="548.39,-369.01 548.39,-398.76 811.64,-398.76 811.64,-369.01 548.39,-369.01"/>
<text xml:space="preserve" text-anchor="start" x="617.76" y="-379.46" font-family="Arial" font-weight="bold" font-size="14.00" fill="white">feedback_message</text>
<polygon fill="none" stroke="#6a7a89" points="548.39,-339.26 548.39,-369.01 656.14,-369.01 656.14,-339.26 548.39,-339.26"/>
<text xml:space="preserve" text-anchor="start" x="555.39" y="-349.71" font-family="Arial" font-weight="bold" font-size="14.00">id</text>
<polygon fill="none" stroke="#6a7a89" points="656.14,-339.26 656.14,-369.01 759.39,-369.01 759.39,-339.26 656.14,-339.26"/>
<text xml:space="preserve" text-anchor="start" x="663.14" y="-349.26" font-family="Arial" font-size="14.00">BIGINT</text>
<polygon fill="none" stroke="#6a7a89" points="759.39,-339.26 759.39,-369.01 811.64,-369.01 811.64,-339.26 759.39,-339.26"/>
<text xml:space="preserve" text-anchor="start" x="766.39" y="-350.39" font-family="Arial" font-size="10.00">PK AI</text>
<polygon fill="none" stroke="#6a7a89" points="548.39,-309.51 548.39,-339.26 656.14,-339.26 656.14,-309.51 548.39,-309.51"/>
<text xml:space="preserve" text-anchor="start" x="555.39" y="-319.96" font-family="Arial" font-weight="bold" font-size="14.00">feedback_id</text>
<polygon fill="none" stroke="#6a7a89" points="656.14,-309.51 656.14,-339.26 759.39,-339.26 759.39,-309.51 656.14,-309.51"/>
<text xml:space="preserve" text-anchor="start" x="663.14" y="-319.51" font-family="Arial" font-size="14.00">BIGINT</text>
<polygon fill="none" stroke="#6a7a89" points="759.39,-309.51 759.39,-339.26 811.64,-339.26 811.64,-309.51 759.39,-309.51"/>
<text xml:space="preserve" text-anchor="start" x="766.39" y="-320.64" font-family="Arial" font-size="10.00">NN</text>
<polygon fill="none" stroke="#6a7a89" points="548.39,-279.76 548.39,-309.51 656.14,-309.51 656.14,-279.76 548.39,-279.76"/>
<text xml:space="preserve" text-anchor="start" x="555.39" y="-290.21" font-family="Arial" font-weight="bold" font-size="14.00">sender_id</text>
<polygon fill="none" stroke="#6a7a89" points="656.14,-279.76 656.14,-309.51 759.39,-309.51 759.39,-279.76 656.14,-279.76"/>
<text xml:space="preserve" text-anchor="start" x="663.14" y="-289.76" font-family="Arial" font-size="14.00">BIGINT</text>
<polygon fill="none" stroke="#6a7a89" points="759.39,-279.76 759.39,-309.51 811.64,-309.51 811.64,-279.76 759.39,-279.76"/>
<text xml:space="preserve" text-anchor="start" x="766.39" y="-290.89" font-family="Arial" font-size="10.00">NN</text>
<polygon fill="none" stroke="#6a7a89" points="548.39,-250.01 548.39,-279.76 656.14,-279.76 656.14,-250.01 548.39,-250.01"/>
<text xml:space="preserve" text-anchor="start" x="555.39" y="-260.46" font-family="Arial" font-weight="bold" font-size="14.00">sender_role</text>
<polygon fill="none" stroke="#6a7a89" points="656.14,-250.01 656.14,-279.76 759.39,-279.76 759.39,-250.01 656.14,-250.01"/>
<text xml:space="preserve" text-anchor="start" x="663.14" y="-260.01" font-family="Arial" font-size="14.00">VARCHAR(20)</text>
<polygon fill="none" stroke="#6a7a89" points="759.39,-250.01 759.39,-279.76 811.64,-279.76 811.64,-250.01 759.39,-250.01"/>
<text xml:space="preserve" text-anchor="start" x="766.39" y="-261.14" font-family="Arial" font-size="10.00">NN</text>
<polygon fill="none" stroke="#6a7a89" points="548.39,-220.26 548.39,-250.01 656.14,-250.01 656.14,-220.26 548.39,-220.26"/>
<text xml:space="preserve" text-anchor="start" x="555.39" y="-230.71" font-family="Arial" font-weight="bold" font-size="14.00">content</text>
<polygon fill="none" stroke="#6a7a89" points="656.14,-220.26 656.14,-250.01 759.39,-250.01 759.39,-220.26 656.14,-220.26"/>
<text xml:space="preserve" text-anchor="start" x="663.14" y="-230.26" font-family="Arial" font-size="14.00">TEXT</text>
<polygon fill="none" stroke="#6a7a89" points="759.39,-220.26 759.39,-250.01 811.64,-250.01 811.64,-220.26 759.39,-220.26"/>
<text xml:space="preserve" text-anchor="start" x="766.39" y="-231.39" font-family="Arial" font-size="10.00"> </text>
<polygon fill="none" stroke="#6a7a89" points="548.39,-190.51 548.39,-220.26 656.14,-220.26 656.14,-190.51 548.39,-190.51"/>
<text xml:space="preserve" text-anchor="start" x="555.39" y="-200.96" font-family="Arial" font-weight="bold" font-size="14.00">message_type</text>
<polygon fill="none" stroke="#6a7a89" points="656.14,-190.51 656.14,-220.26 759.39,-220.26 759.39,-190.51 656.14,-190.51"/>
<text xml:space="preserve" text-anchor="start" x="663.14" y="-200.51" font-family="Arial" font-size="14.00">VARCHAR(20)</text>
<polygon fill="none" stroke="#6a7a89" points="759.39,-190.51 759.39,-220.26 811.64,-220.26 811.64,-190.51 759.39,-190.51"/>
<text xml:space="preserve" text-anchor="start" x="766.39" y="-201.64" font-family="Arial" font-size="10.00">NN DEF</text>
<polygon fill="none" stroke="#6a7a89" points="548.39,-160.76 548.39,-190.51 656.14,-190.51 656.14,-160.76 548.39,-160.76"/>
<text xml:space="preserve" text-anchor="start" x="555.39" y="-171.21" font-family="Arial" font-weight="bold" font-size="14.00">create_time</text>
<polygon fill="none" stroke="#6a7a89" points="656.14,-160.76 656.14,-190.51 759.39,-190.51 759.39,-160.76 656.14,-160.76"/>
<text xml:space="preserve" text-anchor="start" x="663.14" y="-170.76" font-family="Arial" font-size="14.00">DATETIME</text>
<polygon fill="none" stroke="#6a7a89" points="759.39,-160.76 759.39,-190.51 811.64,-190.51 811.64,-160.76 759.39,-160.76"/>
<text xml:space="preserve" text-anchor="start" x="766.39" y="-171.89" font-family="Arial" font-size="10.00">DEF</text>
</g>
<!-- feedback_message&#45;&gt;feedback -->
<g id="edge1" class="edge">
<title>feedback_message:feedback_id&#45;&gt;feedback:id</title>
<path fill="none" stroke="#4f6f52" stroke-dasharray="5,2" d="M547.39,-324.39C530.86,-324.39 537.08,-386.71 548.39,-398.76 584.7,-437.48 978.07,-410.3 1024.64,-435.76 1042.97,-445.79 1036.21,-470.8 1049.38,-477.64"/>
<polygon fill="#4f6f52" stroke="#4f6f52" points="1048.8,-480.02 1056.16,-479.07 1049.82,-475.23 1048.8,-480.02"/>
<text xml:space="preserve" text-anchor="middle" x="934.64" y="-438.26" font-family="Arial" font-size="10.00">message belongs to feedback; no DB FK</text>
</g>
<!-- feedback_message&#45;&gt;external_sys_user -->
<g id="edge5" class="edge">
<title>feedback_message:sender_id&#45;&gt;external_sys_user:id</title>
<path fill="none" stroke="#9a6a2f" stroke-dasharray="5,2" d="M547.39,-294.64C524.25,-294.64 531.95,-382.48 548.39,-398.76 589.95,-439.93 759.22,-424.73 811.64,-398.76 973.33,-318.66 895.94,-155.87 1057.64,-75.76 1254.07,21.55 1389.72,39.18 1549.64,-110.76 1591.13,-149.67 1529.75,-232.41 1574.19,-241.03"/>
<polygon fill="#9a6a2f" stroke="#9a6a2f" points="1573.94,-243.47 1581.13,-241.63 1574.37,-238.59 1573.94,-243.47"/>
<text xml:space="preserve" text-anchor="middle" x="1208.76" y="-78.26" font-family="Arial" font-size="10.00">cross&#45;service sender id; no DB FK</text>
</g>
<!-- feedback_message_attachment -->
<g id="node3" class="node">
<title>feedback_message_attachment</title>
<polygon fill="#24415f" stroke="none" points="15.89,-476.76 15.89,-506.51 285.14,-506.51 285.14,-476.76 15.89,-476.76"/>
<polygon fill="none" stroke="#6a7a89" points="15.89,-476.76 15.89,-506.51 285.14,-506.51 285.14,-476.76 15.89,-476.76"/>
<text xml:space="preserve" text-anchor="start" x="48.14" y="-487.21" font-family="Arial" font-weight="bold" font-size="14.00" fill="white">feedback_message_attachment</text>
<polygon fill="none" stroke="#6a7a89" points="15.89,-447.01 15.89,-476.76 122.14,-476.76 122.14,-447.01 15.89,-447.01"/>
<text xml:space="preserve" text-anchor="start" x="22.89" y="-457.46" font-family="Arial" font-weight="bold" font-size="14.00">id</text>
<polygon fill="none" stroke="#6a7a89" points="122.14,-447.01 122.14,-476.76 232.89,-476.76 232.89,-447.01 122.14,-447.01"/>
<text xml:space="preserve" text-anchor="start" x="129.14" y="-457.01" font-family="Arial" font-size="14.00">BIGINT</text>
<polygon fill="none" stroke="#6a7a89" points="232.89,-447.01 232.89,-476.76 285.14,-476.76 285.14,-447.01 232.89,-447.01"/>
<text xml:space="preserve" text-anchor="start" x="239.89" y="-458.14" font-family="Arial" font-size="10.00">PK AI</text>
<polygon fill="none" stroke="#6a7a89" points="15.89,-417.26 15.89,-447.01 122.14,-447.01 122.14,-417.26 15.89,-417.26"/>
<text xml:space="preserve" text-anchor="start" x="22.89" y="-427.71" font-family="Arial" font-weight="bold" font-size="14.00">feedback_id</text>
<polygon fill="none" stroke="#6a7a89" points="122.14,-417.26 122.14,-447.01 232.89,-447.01 232.89,-417.26 122.14,-417.26"/>
<text xml:space="preserve" text-anchor="start" x="129.14" y="-427.26" font-family="Arial" font-size="14.00">BIGINT</text>
<polygon fill="none" stroke="#6a7a89" points="232.89,-417.26 232.89,-447.01 285.14,-447.01 285.14,-417.26 232.89,-417.26"/>
<text xml:space="preserve" text-anchor="start" x="239.89" y="-428.39" font-family="Arial" font-size="10.00">NN</text>
<polygon fill="none" stroke="#6a7a89" points="15.89,-387.51 15.89,-417.26 122.14,-417.26 122.14,-387.51 15.89,-387.51"/>
<text xml:space="preserve" text-anchor="start" x="22.89" y="-397.96" font-family="Arial" font-weight="bold" font-size="14.00">message_id</text>
<polygon fill="none" stroke="#6a7a89" points="122.14,-387.51 122.14,-417.26 232.89,-417.26 232.89,-387.51 122.14,-387.51"/>
<text xml:space="preserve" text-anchor="start" x="129.14" y="-397.51" font-family="Arial" font-size="14.00">BIGINT</text>
<polygon fill="none" stroke="#6a7a89" points="232.89,-387.51 232.89,-417.26 285.14,-417.26 285.14,-387.51 232.89,-387.51"/>
<text xml:space="preserve" text-anchor="start" x="239.89" y="-398.64" font-family="Arial" font-size="10.00">NN</text>
<polygon fill="none" stroke="#6a7a89" points="15.89,-357.76 15.89,-387.51 122.14,-387.51 122.14,-357.76 15.89,-357.76"/>
<text xml:space="preserve" text-anchor="start" x="22.89" y="-368.21" font-family="Arial" font-weight="bold" font-size="14.00">object_key</text>
<polygon fill="none" stroke="#6a7a89" points="122.14,-357.76 122.14,-387.51 232.89,-387.51 232.89,-357.76 122.14,-357.76"/>
<text xml:space="preserve" text-anchor="start" x="129.14" y="-367.76" font-family="Arial" font-size="14.00">VARCHAR(512)</text>
<polygon fill="none" stroke="#6a7a89" points="232.89,-357.76 232.89,-387.51 285.14,-387.51 285.14,-357.76 232.89,-357.76"/>
<text xml:space="preserve" text-anchor="start" x="239.89" y="-368.89" font-family="Arial" font-size="10.00">NN</text>
<polygon fill="none" stroke="#6a7a89" points="15.89,-328.01 15.89,-357.76 122.14,-357.76 122.14,-328.01 15.89,-328.01"/>
<text xml:space="preserve" text-anchor="start" x="22.89" y="-338.46" font-family="Arial" font-weight="bold" font-size="14.00">original_name</text>
<polygon fill="none" stroke="#6a7a89" points="122.14,-328.01 122.14,-357.76 232.89,-357.76 232.89,-328.01 122.14,-328.01"/>
<text xml:space="preserve" text-anchor="start" x="129.14" y="-338.01" font-family="Arial" font-size="14.00">VARCHAR(255)</text>
<polygon fill="none" stroke="#6a7a89" points="232.89,-328.01 232.89,-357.76 285.14,-357.76 285.14,-328.01 232.89,-328.01"/>
<text xml:space="preserve" text-anchor="start" x="239.89" y="-339.14" font-family="Arial" font-size="10.00">NN</text>
<polygon fill="none" stroke="#6a7a89" points="15.89,-298.26 15.89,-328.01 122.14,-328.01 122.14,-298.26 15.89,-298.26"/>
<text xml:space="preserve" text-anchor="start" x="22.89" y="-308.71" font-family="Arial" font-weight="bold" font-size="14.00">content_type</text>
<polygon fill="none" stroke="#6a7a89" points="122.14,-298.26 122.14,-328.01 232.89,-328.01 232.89,-298.26 122.14,-298.26"/>
<text xml:space="preserve" text-anchor="start" x="129.14" y="-308.26" font-family="Arial" font-size="14.00">VARCHAR(120)</text>
<polygon fill="none" stroke="#6a7a89" points="232.89,-298.26 232.89,-328.01 285.14,-328.01 285.14,-298.26 232.89,-298.26"/>
<text xml:space="preserve" text-anchor="start" x="239.89" y="-309.39" font-family="Arial" font-size="10.00"> </text>
<polygon fill="none" stroke="#6a7a89" points="15.89,-268.51 15.89,-298.26 122.14,-298.26 122.14,-268.51 15.89,-268.51"/>
<text xml:space="preserve" text-anchor="start" x="22.89" y="-278.96" font-family="Arial" font-weight="bold" font-size="14.00">file_size</text>
<polygon fill="none" stroke="#6a7a89" points="122.14,-268.51 122.14,-298.26 232.89,-298.26 232.89,-268.51 122.14,-268.51"/>
<text xml:space="preserve" text-anchor="start" x="129.14" y="-278.51" font-family="Arial" font-size="14.00">BIGINT</text>
<polygon fill="none" stroke="#6a7a89" points="232.89,-268.51 232.89,-298.26 285.14,-298.26 285.14,-268.51 232.89,-268.51"/>
<text xml:space="preserve" text-anchor="start" x="239.89" y="-279.64" font-family="Arial" font-size="10.00">NN DEF</text>
<polygon fill="none" stroke="#6a7a89" points="15.89,-238.76 15.89,-268.51 122.14,-268.51 122.14,-238.76 15.89,-238.76"/>
<text xml:space="preserve" text-anchor="start" x="22.89" y="-249.21" font-family="Arial" font-weight="bold" font-size="14.00">file_type</text>
<polygon fill="none" stroke="#6a7a89" points="122.14,-238.76 122.14,-268.51 232.89,-268.51 232.89,-238.76 122.14,-238.76"/>
<text xml:space="preserve" text-anchor="start" x="129.14" y="-248.76" font-family="Arial" font-size="14.00">VARCHAR(20)</text>
<polygon fill="none" stroke="#6a7a89" points="232.89,-238.76 232.89,-268.51 285.14,-268.51 285.14,-238.76 232.89,-238.76"/>
<text xml:space="preserve" text-anchor="start" x="239.89" y="-249.89" font-family="Arial" font-size="10.00">NN</text>
<polygon fill="none" stroke="#6a7a89" points="15.89,-209.01 15.89,-238.76 122.14,-238.76 122.14,-209.01 15.89,-209.01"/>
<text xml:space="preserve" text-anchor="start" x="22.89" y="-219.46" font-family="Arial" font-weight="bold" font-size="14.00">create_time</text>
<polygon fill="none" stroke="#6a7a89" points="122.14,-209.01 122.14,-238.76 232.89,-238.76 232.89,-209.01 122.14,-209.01"/>
<text xml:space="preserve" text-anchor="start" x="129.14" y="-219.01" font-family="Arial" font-size="14.00">DATETIME</text>
<polygon fill="none" stroke="#6a7a89" points="232.89,-209.01 232.89,-238.76 285.14,-238.76 285.14,-209.01 232.89,-209.01"/>
<text xml:space="preserve" text-anchor="start" x="239.89" y="-220.14" font-family="Arial" font-size="10.00">DEF</text>
</g>
<!-- feedback_message_attachment&#45;&gt;feedback -->
<g id="edge2" class="edge">
<title>feedback_message_attachment:feedback_id&#45;&gt;feedback:id</title>
<path fill="none" stroke="#4f6f52" stroke-dasharray="5,2" d="M14.89,-432.14C-1.64,-432.14 4.12,-494.9 15.89,-506.51 58.48,-548.54 225.31,-507.56 285.14,-506.51 625.78,-500.54 712.65,-479.74 1049.13,-479.39"/>
<polygon fill="#4f6f52" stroke="#4f6f52" points="1049.12,-481.84 1056.12,-479.39 1049.12,-476.94 1049.12,-481.84"/>
<text xml:space="preserve" text-anchor="middle" x="680.01" y="-499.85" font-family="Arial" font-size="10.00">attachment belongs to feedback; no DB FK</text>
</g>
<!-- feedback_message_attachment&#45;&gt;feedback_message -->
<g id="edge3" class="edge">
<title>feedback_message_attachment:message_id&#45;&gt;feedback_message:id</title>
<path fill="none" stroke="#4f6f52" stroke-dasharray="5,2" d="M14.89,-402.39C-8.25,-402.39 -0.55,-490.23 15.89,-506.51 37.14,-527.57 259.2,-521.42 285.14,-506.51 316.7,-488.38 298.49,-459.15 326.39,-435.76 404.75,-370.08 441.24,-354.95 539.92,-354.17"/>
<polygon fill="#4f6f52" stroke="#4f6f52" points="539.88,-356.62 546.87,-354.14 539.86,-351.72 539.88,-356.62"/>
<text xml:space="preserve" text-anchor="middle" x="420.89" y="-438.26" font-family="Arial" font-size="10.00">attachment belongs to message; no DB FK</text>
</g>
<!-- event_outbox -->
<g id="node4" class="node">
<title>event_outbox</title>
<polygon fill="#24415f" stroke="none" points="11.39,-873.51 11.39,-903.26 289.64,-903.26 289.64,-873.51 11.39,-873.51"/>
<polygon fill="none" stroke="#6a7a89" points="11.39,-873.51 11.39,-903.26 289.64,-903.26 289.64,-873.51 11.39,-873.51"/>
<text xml:space="preserve" text-anchor="start" x="106.64" y="-883.96" font-family="Arial" font-weight="bold" font-size="14.00" fill="white">event_outbox</text>
<polygon fill="none" stroke="#6a7a89" points="11.39,-843.76 11.39,-873.51 126.64,-873.51 126.64,-843.76 11.39,-843.76"/>
<text xml:space="preserve" text-anchor="start" x="18.39" y="-854.21" font-family="Arial" font-weight="bold" font-size="14.00">id</text>
<polygon fill="none" stroke="#6a7a89" points="126.64,-843.76 126.64,-873.51 237.39,-873.51 237.39,-843.76 126.64,-843.76"/>
<text xml:space="preserve" text-anchor="start" x="133.64" y="-853.76" font-family="Arial" font-size="14.00">BIGINT</text>
<polygon fill="none" stroke="#6a7a89" points="237.39,-843.76 237.39,-873.51 289.64,-873.51 289.64,-843.76 237.39,-843.76"/>
<text xml:space="preserve" text-anchor="start" x="244.39" y="-854.89" font-family="Arial" font-size="10.00">PK AI</text>
<polygon fill="none" stroke="#6a7a89" points="11.39,-814.01 11.39,-843.76 126.64,-843.76 126.64,-814.01 11.39,-814.01"/>
<text xml:space="preserve" text-anchor="start" x="18.39" y="-824.46" font-family="Arial" font-weight="bold" font-size="14.00">message_id</text>
<polygon fill="none" stroke="#6a7a89" points="126.64,-814.01 126.64,-843.76 237.39,-843.76 237.39,-814.01 126.64,-814.01"/>
<text xml:space="preserve" text-anchor="start" x="133.64" y="-824.01" font-family="Arial" font-size="14.00">VARCHAR(64)</text>
<polygon fill="none" stroke="#6a7a89" points="237.39,-814.01 237.39,-843.76 289.64,-843.76 289.64,-814.01 237.39,-814.01"/>
<text xml:space="preserve" text-anchor="start" x="244.39" y="-825.14" font-family="Arial" font-size="10.00">NN</text>
<polygon fill="none" stroke="#6a7a89" points="11.39,-784.26 11.39,-814.01 126.64,-814.01 126.64,-784.26 11.39,-784.26"/>
<text xml:space="preserve" text-anchor="start" x="18.39" y="-794.71" font-family="Arial" font-weight="bold" font-size="14.00">event_type</text>
<polygon fill="none" stroke="#6a7a89" points="126.64,-784.26 126.64,-814.01 237.39,-814.01 237.39,-784.26 126.64,-784.26"/>
<text xml:space="preserve" text-anchor="start" x="133.64" y="-794.26" font-family="Arial" font-size="14.00">VARCHAR(100)</text>
<polygon fill="none" stroke="#6a7a89" points="237.39,-784.26 237.39,-814.01 289.64,-814.01 289.64,-784.26 237.39,-784.26"/>
<text xml:space="preserve" text-anchor="start" x="244.39" y="-795.39" font-family="Arial" font-size="10.00">NN</text>
<polygon fill="none" stroke="#6a7a89" points="11.39,-754.51 11.39,-784.26 126.64,-784.26 126.64,-754.51 11.39,-754.51"/>
<text xml:space="preserve" text-anchor="start" x="18.39" y="-764.96" font-family="Arial" font-weight="bold" font-size="14.00">aggregate_type</text>
<polygon fill="none" stroke="#6a7a89" points="126.64,-754.51 126.64,-784.26 237.39,-784.26 237.39,-754.51 126.64,-754.51"/>
<text xml:space="preserve" text-anchor="start" x="133.64" y="-764.51" font-family="Arial" font-size="14.00">VARCHAR(100)</text>
<polygon fill="none" stroke="#6a7a89" points="237.39,-754.51 237.39,-784.26 289.64,-784.26 289.64,-754.51 237.39,-754.51"/>
<text xml:space="preserve" text-anchor="start" x="244.39" y="-765.64" font-family="Arial" font-size="10.00">NN</text>
<polygon fill="none" stroke="#6a7a89" points="11.39,-724.76 11.39,-754.51 126.64,-754.51 126.64,-724.76 11.39,-724.76"/>
<text xml:space="preserve" text-anchor="start" x="18.39" y="-735.21" font-family="Arial" font-weight="bold" font-size="14.00">aggregate_id</text>
<polygon fill="none" stroke="#6a7a89" points="126.64,-724.76 126.64,-754.51 237.39,-754.51 237.39,-724.76 126.64,-724.76"/>
<text xml:space="preserve" text-anchor="start" x="133.64" y="-734.76" font-family="Arial" font-size="14.00">VARCHAR(100)</text>
<polygon fill="none" stroke="#6a7a89" points="237.39,-724.76 237.39,-754.51 289.64,-754.51 289.64,-724.76 237.39,-724.76"/>
<text xml:space="preserve" text-anchor="start" x="244.39" y="-735.89" font-family="Arial" font-size="10.00">NN</text>
<polygon fill="none" stroke="#6a7a89" points="11.39,-695.01 11.39,-724.76 126.64,-724.76 126.64,-695.01 11.39,-695.01"/>
<text xml:space="preserve" text-anchor="start" x="18.39" y="-705.46" font-family="Arial" font-weight="bold" font-size="14.00">payload_json</text>
<polygon fill="none" stroke="#6a7a89" points="126.64,-695.01 126.64,-724.76 237.39,-724.76 237.39,-695.01 126.64,-695.01"/>
<text xml:space="preserve" text-anchor="start" x="133.64" y="-705.01" font-family="Arial" font-size="14.00">LONGTEXT</text>
<polygon fill="none" stroke="#6a7a89" points="237.39,-695.01 237.39,-724.76 289.64,-724.76 289.64,-695.01 237.39,-695.01"/>
<text xml:space="preserve" text-anchor="start" x="244.39" y="-706.14" font-family="Arial" font-size="10.00">NN</text>
<polygon fill="none" stroke="#6a7a89" points="11.39,-665.26 11.39,-695.01 126.64,-695.01 126.64,-665.26 11.39,-665.26"/>
<text xml:space="preserve" text-anchor="start" x="18.39" y="-675.71" font-family="Arial" font-weight="bold" font-size="14.00">status</text>
<polygon fill="none" stroke="#6a7a89" points="126.64,-665.26 126.64,-695.01 237.39,-695.01 237.39,-665.26 126.64,-665.26"/>
<text xml:space="preserve" text-anchor="start" x="133.64" y="-675.26" font-family="Arial" font-size="14.00">VARCHAR(20)</text>
<polygon fill="none" stroke="#6a7a89" points="237.39,-665.26 237.39,-695.01 289.64,-695.01 289.64,-665.26 237.39,-665.26"/>
<text xml:space="preserve" text-anchor="start" x="244.39" y="-676.39" font-family="Arial" font-size="10.00">NN DEF</text>
<polygon fill="none" stroke="#6a7a89" points="11.39,-635.51 11.39,-665.26 126.64,-665.26 126.64,-635.51 11.39,-635.51"/>
<text xml:space="preserve" text-anchor="start" x="18.39" y="-645.96" font-family="Arial" font-weight="bold" font-size="14.00">retry_count</text>
<polygon fill="none" stroke="#6a7a89" points="126.64,-635.51 126.64,-665.26 237.39,-665.26 237.39,-635.51 126.64,-635.51"/>
<text xml:space="preserve" text-anchor="start" x="133.64" y="-645.51" font-family="Arial" font-size="14.00">INT</text>
<polygon fill="none" stroke="#6a7a89" points="237.39,-635.51 237.39,-665.26 289.64,-665.26 289.64,-635.51 237.39,-635.51"/>
<text xml:space="preserve" text-anchor="start" x="244.39" y="-646.64" font-family="Arial" font-size="10.00">NN DEF</text>
<polygon fill="none" stroke="#6a7a89" points="11.39,-605.76 11.39,-635.51 126.64,-635.51 126.64,-605.76 11.39,-605.76"/>
<text xml:space="preserve" text-anchor="start" x="18.39" y="-616.21" font-family="Arial" font-weight="bold" font-size="14.00">next_retry_time</text>
<polygon fill="none" stroke="#6a7a89" points="126.64,-605.76 126.64,-635.51 237.39,-635.51 237.39,-605.76 126.64,-605.76"/>
<text xml:space="preserve" text-anchor="start" x="133.64" y="-615.76" font-family="Arial" font-size="14.00">DATETIME</text>
<polygon fill="none" stroke="#6a7a89" points="237.39,-605.76 237.39,-635.51 289.64,-635.51 289.64,-605.76 237.39,-605.76"/>
<text xml:space="preserve" text-anchor="start" x="244.39" y="-616.89" font-family="Arial" font-size="10.00">NN DEF</text>
<polygon fill="none" stroke="#6a7a89" points="11.39,-576.01 11.39,-605.76 126.64,-605.76 126.64,-576.01 11.39,-576.01"/>
<text xml:space="preserve" text-anchor="start" x="18.39" y="-586.46" font-family="Arial" font-weight="bold" font-size="14.00">created_at</text>
<polygon fill="none" stroke="#6a7a89" points="126.64,-576.01 126.64,-605.76 237.39,-605.76 237.39,-576.01 126.64,-576.01"/>
<text xml:space="preserve" text-anchor="start" x="133.64" y="-586.01" font-family="Arial" font-size="14.00">DATETIME</text>
<polygon fill="none" stroke="#6a7a89" points="237.39,-576.01 237.39,-605.76 289.64,-605.76 289.64,-576.01 237.39,-576.01"/>
<text xml:space="preserve" text-anchor="start" x="244.39" y="-587.14" font-family="Arial" font-size="10.00">NN DEF</text>
<polygon fill="none" stroke="#6a7a89" points="11.39,-546.26 11.39,-576.01 126.64,-576.01 126.64,-546.26 11.39,-546.26"/>
<text xml:space="preserve" text-anchor="start" x="18.39" y="-556.71" font-family="Arial" font-weight="bold" font-size="14.00">sent_at</text>
<polygon fill="none" stroke="#6a7a89" points="126.64,-546.26 126.64,-576.01 237.39,-576.01 237.39,-546.26 126.64,-546.26"/>
<text xml:space="preserve" text-anchor="start" x="133.64" y="-556.26" font-family="Arial" font-size="14.00">DATETIME</text>
<polygon fill="none" stroke="#6a7a89" points="237.39,-546.26 237.39,-576.01 289.64,-576.01 289.64,-546.26 237.39,-546.26"/>
<text xml:space="preserve" text-anchor="start" x="244.39" y="-557.39" font-family="Arial" font-size="10.00"> </text>
</g>
<!-- mq_consume_record -->
<g id="node5" class="node">
<title>mq_consume_record</title>
<polygon fill="#24415f" stroke="none" points="7.64,-1092.26 7.64,-1122.01 293.39,-1122.01 293.39,-1092.26 7.64,-1092.26"/>
<polygon fill="none" stroke="#6a7a89" points="7.64,-1092.26 7.64,-1122.01 293.39,-1122.01 293.39,-1092.26 7.64,-1092.26"/>
<text xml:space="preserve" text-anchor="start" x="81.51" y="-1102.71" font-family="Arial" font-weight="bold" font-size="14.00" fill="white">mq_consume_record</text>
<polygon fill="none" stroke="#6a7a89" points="7.64,-1062.51 7.64,-1092.26 130.39,-1092.26 130.39,-1062.51 7.64,-1062.51"/>
<text xml:space="preserve" text-anchor="start" x="14.64" y="-1072.96" font-family="Arial" font-weight="bold" font-size="14.00">id</text>
<polygon fill="none" stroke="#6a7a89" points="130.39,-1062.51 130.39,-1092.26 241.14,-1092.26 241.14,-1062.51 130.39,-1062.51"/>
<text xml:space="preserve" text-anchor="start" x="137.39" y="-1072.51" font-family="Arial" font-size="14.00">BIGINT</text>
<polygon fill="none" stroke="#6a7a89" points="241.14,-1062.51 241.14,-1092.26 293.39,-1092.26 293.39,-1062.51 241.14,-1062.51"/>
<text xml:space="preserve" text-anchor="start" x="248.14" y="-1073.64" font-family="Arial" font-size="10.00">PK AI</text>
<polygon fill="none" stroke="#6a7a89" points="7.64,-1032.76 7.64,-1062.51 130.39,-1062.51 130.39,-1032.76 7.64,-1032.76"/>
<text xml:space="preserve" text-anchor="start" x="14.64" y="-1043.21" font-family="Arial" font-weight="bold" font-size="14.00">message_id</text>
<polygon fill="none" stroke="#6a7a89" points="130.39,-1032.76 130.39,-1062.51 241.14,-1062.51 241.14,-1032.76 130.39,-1032.76"/>
<text xml:space="preserve" text-anchor="start" x="137.39" y="-1042.76" font-family="Arial" font-size="14.00">VARCHAR(64)</text>
<polygon fill="none" stroke="#6a7a89" points="241.14,-1032.76 241.14,-1062.51 293.39,-1062.51 293.39,-1032.76 241.14,-1032.76"/>
<text xml:space="preserve" text-anchor="start" x="248.14" y="-1043.89" font-family="Arial" font-size="10.00">NN</text>
<polygon fill="none" stroke="#6a7a89" points="7.64,-1003.01 7.64,-1032.76 130.39,-1032.76 130.39,-1003.01 7.64,-1003.01"/>
<text xml:space="preserve" text-anchor="start" x="14.64" y="-1013.46" font-family="Arial" font-weight="bold" font-size="14.00">consumer_name</text>
<polygon fill="none" stroke="#6a7a89" points="130.39,-1003.01 130.39,-1032.76 241.14,-1032.76 241.14,-1003.01 130.39,-1003.01"/>
<text xml:space="preserve" text-anchor="start" x="137.39" y="-1013.01" font-family="Arial" font-size="14.00">VARCHAR(120)</text>
<polygon fill="none" stroke="#6a7a89" points="241.14,-1003.01 241.14,-1032.76 293.39,-1032.76 293.39,-1003.01 241.14,-1003.01"/>
<text xml:space="preserve" text-anchor="start" x="248.14" y="-1014.14" font-family="Arial" font-size="10.00">NN</text>
<polygon fill="none" stroke="#6a7a89" points="7.64,-973.26 7.64,-1003.01 130.39,-1003.01 130.39,-973.26 7.64,-973.26"/>
<text xml:space="preserve" text-anchor="start" x="14.64" y="-983.71" font-family="Arial" font-weight="bold" font-size="14.00">status</text>
<polygon fill="none" stroke="#6a7a89" points="130.39,-973.26 130.39,-1003.01 241.14,-1003.01 241.14,-973.26 130.39,-973.26"/>
<text xml:space="preserve" text-anchor="start" x="137.39" y="-983.26" font-family="Arial" font-size="14.00">VARCHAR(20)</text>
<polygon fill="none" stroke="#6a7a89" points="241.14,-973.26 241.14,-1003.01 293.39,-1003.01 293.39,-973.26 241.14,-973.26"/>
<text xml:space="preserve" text-anchor="start" x="248.14" y="-984.39" font-family="Arial" font-size="10.00">NN DEF</text>
<polygon fill="none" stroke="#6a7a89" points="7.64,-943.51 7.64,-973.26 130.39,-973.26 130.39,-943.51 7.64,-943.51"/>
<text xml:space="preserve" text-anchor="start" x="14.64" y="-953.96" font-family="Arial" font-weight="bold" font-size="14.00">consumed_at</text>
<polygon fill="none" stroke="#6a7a89" points="130.39,-943.51 130.39,-973.26 241.14,-973.26 241.14,-943.51 130.39,-943.51"/>
<text xml:space="preserve" text-anchor="start" x="137.39" y="-953.51" font-family="Arial" font-size="14.00">DATETIME</text>
<polygon fill="none" stroke="#6a7a89" points="241.14,-943.51 241.14,-973.26 293.39,-973.26 293.39,-943.51 241.14,-943.51"/>
<text xml:space="preserve" text-anchor="start" x="248.14" y="-954.64" font-family="Arial" font-size="10.00">NN DEF</text>
</g>
</g>
</svg>
