<?xml version="1.0" encoding="UTF-8" standalone="no"?>
<!DOCTYPE svg PUBLIC "-//W3C//DTD SVG 1.1//EN"
 "http://www.w3.org/Graphics/SVG/1.1/DTD/svg11.dtd">
<!-- Generated by graphviz version 14.1.4 (20260321.0153)
 -->
<!-- Title: ER Pages: 1 -->
<svg width="896pt" height="1107pt"
 viewBox="0.00 0.00 896.00 1107.00" xmlns="http://www.w3.org/2000/svg" xmlns:xlink="http://www.w3.org/1999/xlink">
<g id="graph0" class="graph" transform="scale(1 1) rotate(0) translate(25.2 1081.58)">
<title>ER</title>
<polygon fill="white" stroke="none" points="-25.2,25.2 -25.2,-1081.58 870.73,-1081.58 870.73,25.2 -25.2,25.2"/>
<text xml:space="preserve" text-anchor="middle" x="422.77" y="-1039.08" font-family="Times New Roman,serif" font-size="14.00">user&#45;service</text>
<!-- sys_user -->
<g id="node1" class="node">
<title>sys_user</title>
<polygon fill="#24415f" stroke="none" points="526.78,-357 526.78,-386.75 845.53,-386.75 845.53,-357 526.78,-357"/>
<polygon fill="none" stroke="#6a7a89" points="526.78,-357 526.78,-386.75 845.53,-386.75 845.53,-357 526.78,-357"/>
<text xml:space="preserve" text-anchor="start" x="656.91" y="-367.45" font-family="Arial" font-weight="bold" font-size="14.00" fill="white">sys_user</text>
<polygon fill="none" stroke="#6a7a89" points="526.78,-327.25 526.78,-357 682.53,-357 682.53,-327.25 526.78,-327.25"/>
<text xml:space="preserve" text-anchor="start" x="533.78" y="-337.7" font-family="Arial" font-weight="bold" font-size="14.00">id</text>
<polygon fill="none" stroke="#6a7a89" points="682.53,-327.25 682.53,-357 793.28,-357 793.28,-327.25 682.53,-327.25"/>
<text xml:space="preserve" text-anchor="start" x="689.53" y="-337.25" font-family="Arial" font-size="14.00">BIGINT</text>
<polygon fill="none" stroke="#6a7a89" points="793.28,-327.25 793.28,-357 845.53,-357 845.53,-327.25 793.28,-327.25"/>
<text xml:space="preserve" text-anchor="start" x="800.28" y="-338.38" font-family="Arial" font-size="10.00">PK AI</text>
<polygon fill="none" stroke="#6a7a89" points="526.78,-297.5 526.78,-327.25 682.53,-327.25 682.53,-297.5 526.78,-297.5"/>
<text xml:space="preserve" text-anchor="start" x="533.78" y="-307.95" font-family="Arial" font-weight="bold" font-size="14.00">username</text>
<polygon fill="none" stroke="#6a7a89" points="682.53,-297.5 682.53,-327.25 793.28,-327.25 793.28,-297.5 682.53,-297.5"/>
<text xml:space="preserve" text-anchor="start" x="689.53" y="-307.5" font-family="Arial" font-size="14.00">VARCHAR(50)</text>
<polygon fill="none" stroke="#6a7a89" points="793.28,-297.5 793.28,-327.25 845.53,-327.25 845.53,-297.5 793.28,-297.5"/>
<text xml:space="preserve" text-anchor="start" x="800.28" y="-308.62" font-family="Arial" font-size="10.00">NN UQ</text>
<polygon fill="none" stroke="#6a7a89" points="526.78,-267.75 526.78,-297.5 682.53,-297.5 682.53,-267.75 526.78,-267.75"/>
<text xml:space="preserve" text-anchor="start" x="533.78" y="-278.2" font-family="Arial" font-weight="bold" font-size="14.00">password</text>
<polygon fill="none" stroke="#6a7a89" points="682.53,-267.75 682.53,-297.5 793.28,-297.5 793.28,-267.75 682.53,-267.75"/>
<text xml:space="preserve" text-anchor="start" x="689.53" y="-277.75" font-family="Arial" font-size="14.00">VARCHAR(255)</text>
<polygon fill="none" stroke="#6a7a89" points="793.28,-267.75 793.28,-297.5 845.53,-297.5 845.53,-267.75 793.28,-267.75"/>
<text xml:space="preserve" text-anchor="start" x="800.28" y="-278.88" font-family="Arial" font-size="10.00">NN</text>
<polygon fill="none" stroke="#6a7a89" points="526.78,-238 526.78,-267.75 682.53,-267.75 682.53,-238 526.78,-238"/>
<text xml:space="preserve" text-anchor="start" x="533.78" y="-248.45" font-family="Arial" font-weight="bold" font-size="14.00">real_name</text>
<polygon fill="none" stroke="#6a7a89" points="682.53,-238 682.53,-267.75 793.28,-267.75 793.28,-238 682.53,-238"/>
<text xml:space="preserve" text-anchor="start" x="689.53" y="-248" font-family="Arial" font-size="14.00">VARCHAR(50)</text>
<polygon fill="none" stroke="#6a7a89" points="793.28,-238 793.28,-267.75 845.53,-267.75 845.53,-238 793.28,-238"/>
<text xml:space="preserve" text-anchor="start" x="800.28" y="-249.12" font-family="Arial" font-size="10.00">NN</text>
<polygon fill="none" stroke="#6a7a89" points="526.78,-208.25 526.78,-238 682.53,-238 682.53,-208.25 526.78,-208.25"/>
<text xml:space="preserve" text-anchor="start" x="533.78" y="-218.7" font-family="Arial" font-weight="bold" font-size="14.00">student_no</text>
<polygon fill="none" stroke="#6a7a89" points="682.53,-208.25 682.53,-238 793.28,-238 793.28,-208.25 682.53,-208.25"/>
<text xml:space="preserve" text-anchor="start" x="689.53" y="-218.25" font-family="Arial" font-size="14.00">VARCHAR(50)</text>
<polygon fill="none" stroke="#6a7a89" points="793.28,-208.25 793.28,-238 845.53,-238 845.53,-208.25 793.28,-208.25"/>
<text xml:space="preserve" text-anchor="start" x="800.28" y="-219.38" font-family="Arial" font-size="10.00"> </text>
<polygon fill="none" stroke="#6a7a89" points="526.78,-178.5 526.78,-208.25 682.53,-208.25 682.53,-178.5 526.78,-178.5"/>
<text xml:space="preserve" text-anchor="start" x="533.78" y="-188.95" font-family="Arial" font-weight="bold" font-size="14.00">phone</text>
<polygon fill="none" stroke="#6a7a89" points="682.53,-178.5 682.53,-208.25 793.28,-208.25 793.28,-178.5 682.53,-178.5"/>
<text xml:space="preserve" text-anchor="start" x="689.53" y="-188.5" font-family="Arial" font-size="14.00">VARCHAR(20)</text>
<polygon fill="none" stroke="#6a7a89" points="793.28,-178.5 793.28,-208.25 845.53,-208.25 845.53,-178.5 793.28,-178.5"/>
<text xml:space="preserve" text-anchor="start" x="800.28" y="-189.62" font-family="Arial" font-size="10.00"> </text>
<polygon fill="none" stroke="#6a7a89" points="526.78,-148.75 526.78,-178.5 682.53,-178.5 682.53,-148.75 526.78,-148.75"/>
<text xml:space="preserve" text-anchor="start" x="533.78" y="-159.2" font-family="Arial" font-weight="bold" font-size="14.00">email</text>
<polygon fill="none" stroke="#6a7a89" points="682.53,-148.75 682.53,-178.5 793.28,-178.5 793.28,-148.75 682.53,-148.75"/>
<text xml:space="preserve" text-anchor="start" x="689.53" y="-158.75" font-family="Arial" font-size="14.00">VARCHAR(100)</text>
<polygon fill="none" stroke="#6a7a89" points="793.28,-148.75 793.28,-178.5 845.53,-178.5 845.53,-148.75 793.28,-148.75"/>
<text xml:space="preserve" text-anchor="start" x="800.28" y="-159.88" font-family="Arial" font-size="10.00"> </text>
<polygon fill="none" stroke="#6a7a89" points="526.78,-119 526.78,-148.75 682.53,-148.75 682.53,-119 526.78,-119"/>
<text xml:space="preserve" text-anchor="start" x="533.78" y="-129.45" font-family="Arial" font-weight="bold" font-size="14.00">role</text>
<polygon fill="none" stroke="#6a7a89" points="682.53,-119 682.53,-148.75 793.28,-148.75 793.28,-119 682.53,-119"/>
<text xml:space="preserve" text-anchor="start" x="689.53" y="-129" font-family="Arial" font-size="14.00">VARCHAR(20)</text>
<polygon fill="none" stroke="#6a7a89" points="793.28,-119 793.28,-148.75 845.53,-148.75 845.53,-119 793.28,-119"/>
<text xml:space="preserve" text-anchor="start" x="800.28" y="-130.12" font-family="Arial" font-size="10.00">NN DEF</text>
<polygon fill="none" stroke="#6a7a89" points="526.78,-89.25 526.78,-119 682.53,-119 682.53,-89.25 526.78,-89.25"/>
<text xml:space="preserve" text-anchor="start" x="533.78" y="-99.7" font-family="Arial" font-weight="bold" font-size="14.00">total_volunteer_hours</text>
<polygon fill="none" stroke="#6a7a89" points="682.53,-89.25 682.53,-119 793.28,-119 793.28,-89.25 682.53,-89.25"/>
<text xml:space="preserve" text-anchor="start" x="689.53" y="-99.25" font-family="Arial" font-size="14.00">DECIMAL(10,2)</text>
<polygon fill="none" stroke="#6a7a89" points="793.28,-89.25 793.28,-119 845.53,-119 845.53,-89.25 793.28,-89.25"/>
<text xml:space="preserve" text-anchor="start" x="800.28" y="-100.38" font-family="Arial" font-size="10.00">DEF</text>
<polygon fill="none" stroke="#6a7a89" points="526.78,-59.5 526.78,-89.25 682.53,-89.25 682.53,-59.5 526.78,-59.5"/>
<text xml:space="preserve" text-anchor="start" x="533.78" y="-69.95" font-family="Arial" font-weight="bold" font-size="14.00">status</text>
<polygon fill="none" stroke="#6a7a89" points="682.53,-59.5 682.53,-89.25 793.28,-89.25 793.28,-59.5 682.53,-59.5"/>
<text xml:space="preserve" text-anchor="start" x="689.53" y="-69.5" font-family="Arial" font-size="14.00">TINYINT</text>
<polygon fill="none" stroke="#6a7a89" points="793.28,-59.5 793.28,-89.25 845.53,-89.25 845.53,-59.5 793.28,-59.5"/>
<text xml:space="preserve" text-anchor="start" x="800.28" y="-70.62" font-family="Arial" font-size="10.00">DEF</text>
<polygon fill="none" stroke="#6a7a89" points="526.78,-29.75 526.78,-59.5 682.53,-59.5 682.53,-29.75 526.78,-29.75"/>
<text xml:space="preserve" text-anchor="start" x="533.78" y="-40.2" font-family="Arial" font-weight="bold" font-size="14.00">create_time</text>
<polygon fill="none" stroke="#6a7a89" points="682.53,-29.75 682.53,-59.5 793.28,-59.5 793.28,-29.75 682.53,-29.75"/>
<text xml:space="preserve" text-anchor="start" x="689.53" y="-39.75" font-family="Arial" font-size="14.00">DATETIME</text>
<polygon fill="none" stroke="#6a7a89" points="793.28,-29.75 793.28,-59.5 845.53,-59.5 845.53,-29.75 793.28,-29.75"/>
<text xml:space="preserve" text-anchor="start" x="800.28" y="-40.88" font-family="Arial" font-size="10.00">DEF</text>
<polygon fill="none" stroke="#6a7a89" points="526.78,0 526.78,-29.75 682.53,-29.75 682.53,0 526.78,0"/>
<text xml:space="preserve" text-anchor="start" x="533.78" y="-10.45" font-family="Arial" font-weight="bold" font-size="14.00">update_time</text>
<polygon fill="none" stroke="#6a7a89" points="682.53,0 682.53,-29.75 793.28,-29.75 793.28,0 682.53,0"/>
<text xml:space="preserve" text-anchor="start" x="689.53" y="-10" font-family="Arial" font-size="14.00">DATETIME</text>
<polygon fill="none" stroke="#6a7a89" points="793.28,0 793.28,-29.75 845.53,-29.75 845.53,0 793.28,0"/>
<text xml:space="preserve" text-anchor="start" x="800.28" y="-11.12" font-family="Arial" font-size="10.00">DEF</text>
</g>
<!-- mq_consume_record -->
<g id="node2" class="node">
<title>mq_consume_record</title>
<polygon fill="#24415f" stroke="none" points="22.03,-604.88 22.03,-634.62 307.78,-634.62 307.78,-604.88 22.03,-604.88"/>
<polygon fill="none" stroke="#6a7a89" points="22.03,-604.88 22.03,-634.62 307.78,-634.62 307.78,-604.88 22.03,-604.88"/>
<text xml:space="preserve" text-anchor="start" x="95.91" y="-615.33" font-family="Arial" font-weight="bold" font-size="14.00" fill="white">mq_consume_record</text>
<polygon fill="none" stroke="#6a7a89" points="22.03,-575.12 22.03,-604.88 144.78,-604.88 144.78,-575.12 22.03,-575.12"/>
<text xml:space="preserve" text-anchor="start" x="29.03" y="-585.58" font-family="Arial" font-weight="bold" font-size="14.00">id</text>
<polygon fill="none" stroke="#6a7a89" points="144.78,-575.12 144.78,-604.88 255.53,-604.88 255.53,-575.12 144.78,-575.12"/>
<text xml:space="preserve" text-anchor="start" x="151.78" y="-585.12" font-family="Arial" font-size="14.00">BIGINT</text>
<polygon fill="none" stroke="#6a7a89" points="255.53,-575.12 255.53,-604.88 307.78,-604.88 307.78,-575.12 255.53,-575.12"/>
<text xml:space="preserve" text-anchor="start" x="262.53" y="-586.25" font-family="Arial" font-size="10.00">PK AI</text>
<polygon fill="none" stroke="#6a7a89" points="22.03,-545.38 22.03,-575.12 144.78,-575.12 144.78,-545.38 22.03,-545.38"/>
<text xml:space="preserve" text-anchor="start" x="29.03" y="-555.83" font-family="Arial" font-weight="bold" font-size="14.00">message_id</text>
<polygon fill="none" stroke="#6a7a89" points="144.78,-545.38 144.78,-575.12 255.53,-575.12 255.53,-545.38 144.78,-545.38"/>
<text xml:space="preserve" text-anchor="start" x="151.78" y="-555.38" font-family="Arial" font-size="14.00">VARCHAR(64)</text>
<polygon fill="none" stroke="#6a7a89" points="255.53,-545.38 255.53,-575.12 307.78,-575.12 307.78,-545.38 255.53,-545.38"/>
<text xml:space="preserve" text-anchor="start" x="262.53" y="-556.5" font-family="Arial" font-size="10.00">NN</text>
<polygon fill="none" stroke="#6a7a89" points="22.03,-515.62 22.03,-545.38 144.78,-545.38 144.78,-515.62 22.03,-515.62"/>
<text xml:space="preserve" text-anchor="start" x="29.03" y="-526.08" font-family="Arial" font-weight="bold" font-size="14.00">consumer_name</text>
<polygon fill="none" stroke="#6a7a89" points="144.78,-515.62 144.78,-545.38 255.53,-545.38 255.53,-515.62 144.78,-515.62"/>
<text xml:space="preserve" text-anchor="start" x="151.78" y="-525.62" font-family="Arial" font-size="14.00">VARCHAR(120)</text>
<polygon fill="none" stroke="#6a7a89" points="255.53,-515.62 255.53,-545.38 307.78,-545.38 307.78,-515.62 255.53,-515.62"/>
<text xml:space="preserve" text-anchor="start" x="262.53" y="-526.75" font-family="Arial" font-size="10.00">NN</text>
<polygon fill="none" stroke="#6a7a89" points="22.03,-485.88 22.03,-515.62 144.78,-515.62 144.78,-485.88 22.03,-485.88"/>
<text xml:space="preserve" text-anchor="start" x="29.03" y="-496.32" font-family="Arial" font-weight="bold" font-size="14.00">status</text>
<polygon fill="none" stroke="#6a7a89" points="144.78,-485.88 144.78,-515.62 255.53,-515.62 255.53,-485.88 144.78,-485.88"/>
<text xml:space="preserve" text-anchor="start" x="151.78" y="-495.88" font-family="Arial" font-size="14.00">VARCHAR(20)</text>
<polygon fill="none" stroke="#6a7a89" points="255.53,-485.88 255.53,-515.62 307.78,-515.62 307.78,-485.88 255.53,-485.88"/>
<text xml:space="preserve" text-anchor="start" x="262.53" y="-497" font-family="Arial" font-size="10.00">NN DEF</text>
<polygon fill="none" stroke="#6a7a89" points="22.03,-456.12 22.03,-485.88 144.78,-485.88 144.78,-456.12 22.03,-456.12"/>
<text xml:space="preserve" text-anchor="start" x="29.03" y="-466.57" font-family="Arial" font-weight="bold" font-size="14.00">consumed_at</text>
<polygon fill="none" stroke="#6a7a89" points="144.78,-456.12 144.78,-485.88 255.53,-485.88 255.53,-456.12 144.78,-456.12"/>
<text xml:space="preserve" text-anchor="start" x="151.78" y="-466.12" font-family="Arial" font-size="14.00">DATETIME</text>
<polygon fill="none" stroke="#6a7a89" points="255.53,-456.12 255.53,-485.88 307.78,-485.88 307.78,-456.12 255.53,-456.12"/>
<text xml:space="preserve" text-anchor="start" x="262.53" y="-467.25" font-family="Arial" font-size="10.00">NN DEF</text>
</g>
<!-- event_outbox -->
<g id="node3" class="node">
<title>event_outbox</title>
<polygon fill="#24415f" stroke="none" points="25.78,-1002.12 25.78,-1031.88 304.03,-1031.88 304.03,-1002.12 25.78,-1002.12"/>
<polygon fill="none" stroke="#6a7a89" points="25.78,-1002.12 25.78,-1031.88 304.03,-1031.88 304.03,-1002.12 25.78,-1002.12"/>
<text xml:space="preserve" text-anchor="start" x="121.03" y="-1012.58" font-family="Arial" font-weight="bold" font-size="14.00" fill="white">event_outbox</text>
<polygon fill="none" stroke="#6a7a89" points="25.78,-972.38 25.78,-1002.12 141.03,-1002.12 141.03,-972.38 25.78,-972.38"/>
<text xml:space="preserve" text-anchor="start" x="32.78" y="-982.83" font-family="Arial" font-weight="bold" font-size="14.00">id</text>
<polygon fill="none" stroke="#6a7a89" points="141.03,-972.38 141.03,-1002.12 251.78,-1002.12 251.78,-972.38 141.03,-972.38"/>
<text xml:space="preserve" text-anchor="start" x="148.03" y="-982.38" font-family="Arial" font-size="14.00">BIGINT</text>
<polygon fill="none" stroke="#6a7a89" points="251.78,-972.38 251.78,-1002.12 304.03,-1002.12 304.03,-972.38 251.78,-972.38"/>
<text xml:space="preserve" text-anchor="start" x="258.78" y="-983.5" font-family="Arial" font-size="10.00">PK AI</text>
<polygon fill="none" stroke="#6a7a89" points="25.78,-942.62 25.78,-972.38 141.03,-972.38 141.03,-942.62 25.78,-942.62"/>
<text xml:space="preserve" text-anchor="start" x="32.78" y="-953.08" font-family="Arial" font-weight="bold" font-size="14.00">message_id</text>
<polygon fill="none" stroke="#6a7a89" points="141.03,-942.62 141.03,-972.38 251.78,-972.38 251.78,-942.62 141.03,-942.62"/>
<text xml:space="preserve" text-anchor="start" x="148.03" y="-952.62" font-family="Arial" font-size="14.00">VARCHAR(64)</text>
<polygon fill="none" stroke="#6a7a89" points="251.78,-942.62 251.78,-972.38 304.03,-972.38 304.03,-942.62 251.78,-942.62"/>
<text xml:space="preserve" text-anchor="start" x="258.78" y="-953.75" font-family="Arial" font-size="10.00">NN</text>
<polygon fill="none" stroke="#6a7a89" points="25.78,-912.88 25.78,-942.62 141.03,-942.62 141.03,-912.88 25.78,-912.88"/>
<text xml:space="preserve" text-anchor="start" x="32.78" y="-923.33" font-family="Arial" font-weight="bold" font-size="14.00">event_type</text>
<polygon fill="none" stroke="#6a7a89" points="141.03,-912.88 141.03,-942.62 251.78,-942.62 251.78,-912.88 141.03,-912.88"/>
<text xml:space="preserve" text-anchor="start" x="148.03" y="-922.88" font-family="Arial" font-size="14.00">VARCHAR(100)</text>
<polygon fill="none" stroke="#6a7a89" points="251.78,-912.88 251.78,-942.62 304.03,-942.62 304.03,-912.88 251.78,-912.88"/>
<text xml:space="preserve" text-anchor="start" x="258.78" y="-924" font-family="Arial" font-size="10.00">NN</text>
<polygon fill="none" stroke="#6a7a89" points="25.78,-883.12 25.78,-912.88 141.03,-912.88 141.03,-883.12 25.78,-883.12"/>
<text xml:space="preserve" text-anchor="start" x="32.78" y="-893.58" font-family="Arial" font-weight="bold" font-size="14.00">aggregate_type</text>
<polygon fill="none" stroke="#6a7a89" points="141.03,-883.12 141.03,-912.88 251.78,-912.88 251.78,-883.12 141.03,-883.12"/>
<text xml:space="preserve" text-anchor="start" x="148.03" y="-893.12" font-family="Arial" font-size="14.00">VARCHAR(100)</text>
<polygon fill="none" stroke="#6a7a89" points="251.78,-883.12 251.78,-912.88 304.03,-912.88 304.03,-883.12 251.78,-883.12"/>
<text xml:space="preserve" text-anchor="start" x="258.78" y="-894.25" font-family="Arial" font-size="10.00">NN</text>
<polygon fill="none" stroke="#6a7a89" points="25.78,-853.38 25.78,-883.12 141.03,-883.12 141.03,-853.38 25.78,-853.38"/>
<text xml:space="preserve" text-anchor="start" x="32.78" y="-863.83" font-family="Arial" font-weight="bold" font-size="14.00">aggregate_id</text>
<polygon fill="none" stroke="#6a7a89" points="141.03,-853.38 141.03,-883.12 251.78,-883.12 251.78,-853.38 141.03,-853.38"/>
<text xml:space="preserve" text-anchor="start" x="148.03" y="-863.38" font-family="Arial" font-size="14.00">VARCHAR(100)</text>
<polygon fill="none" stroke="#6a7a89" points="251.78,-853.38 251.78,-883.12 304.03,-883.12 304.03,-853.38 251.78,-853.38"/>
<text xml:space="preserve" text-anchor="start" x="258.78" y="-864.5" font-family="Arial" font-size="10.00">NN</text>
<polygon fill="none" stroke="#6a7a89" points="25.78,-823.62 25.78,-853.38 141.03,-853.38 141.03,-823.62 25.78,-823.62"/>
<text xml:space="preserve" text-anchor="start" x="32.78" y="-834.08" font-family="Arial" font-weight="bold" font-size="14.00">payload_json</text>
<polygon fill="none" stroke="#6a7a89" points="141.03,-823.62 141.03,-853.38 251.78,-853.38 251.78,-823.62 141.03,-823.62"/>
<text xml:space="preserve" text-anchor="start" x="148.03" y="-833.62" font-family="Arial" font-size="14.00">LONGTEXT</text>
<polygon fill="none" stroke="#6a7a89" points="251.78,-823.62 251.78,-853.38 304.03,-853.38 304.03,-823.62 251.78,-823.62"/>
<text xml:space="preserve" text-anchor="start" x="258.78" y="-834.75" font-family="Arial" font-size="10.00">NN</text>
<polygon fill="none" stroke="#6a7a89" points="25.78,-793.88 25.78,-823.62 141.03,-823.62 141.03,-793.88 25.78,-793.88"/>
<text xml:space="preserve" text-anchor="start" x="32.78" y="-804.33" font-family="Arial" font-weight="bold" font-size="14.00">status</text>
<polygon fill="none" stroke="#6a7a89" points="141.03,-793.88 141.03,-823.62 251.78,-823.62 251.78,-793.88 141.03,-793.88"/>
<text xml:space="preserve" text-anchor="start" x="148.03" y="-803.88" font-family="Arial" font-size="14.00">VARCHAR(20)</text>
<polygon fill="none" stroke="#6a7a89" points="251.78,-793.88 251.78,-823.62 304.03,-823.62 304.03,-793.88 251.78,-793.88"/>
<text xml:space="preserve" text-anchor="start" x="258.78" y="-805" font-family="Arial" font-size="10.00">NN DEF</text>
<polygon fill="none" stroke="#6a7a89" points="25.78,-764.12 25.78,-793.88 141.03,-793.88 141.03,-764.12 25.78,-764.12"/>
<text xml:space="preserve" text-anchor="start" x="32.78" y="-774.58" font-family="Arial" font-weight="bold" font-size="14.00">retry_count</text>
<polygon fill="none" stroke="#6a7a89" points="141.03,-764.12 141.03,-793.88 251.78,-793.88 251.78,-764.12 141.03,-764.12"/>
<text xml:space="preserve" text-anchor="start" x="148.03" y="-774.12" font-family="Arial" font-size="14.00">INT</text>
<polygon fill="none" stroke="#6a7a89" points="251.78,-764.12 251.78,-793.88 304.03,-793.88 304.03,-764.12 251.78,-764.12"/>
<text xml:space="preserve" text-anchor="start" x="258.78" y="-775.25" font-family="Arial" font-size="10.00">NN DEF</text>
<polygon fill="none" stroke="#6a7a89" points="25.78,-734.38 25.78,-764.12 141.03,-764.12 141.03,-734.38 25.78,-734.38"/>
<text xml:space="preserve" text-anchor="start" x="32.78" y="-744.83" font-family="Arial" font-weight="bold" font-size="14.00">next_retry_time</text>
<polygon fill="none" stroke="#6a7a89" points="141.03,-734.38 141.03,-764.12 251.78,-764.12 251.78,-734.38 141.03,-734.38"/>
<text xml:space="preserve" text-anchor="start" x="148.03" y="-744.38" font-family="Arial" font-size="14.00">DATETIME</text>
<polygon fill="none" stroke="#6a7a89" points="251.78,-734.38 251.78,-764.12 304.03,-764.12 304.03,-734.38 251.78,-734.38"/>
<text xml:space="preserve" text-anchor="start" x="258.78" y="-745.5" font-family="Arial" font-size="10.00">NN DEF</text>
<polygon fill="none" stroke="#6a7a89" points="25.78,-704.62 25.78,-734.38 141.03,-734.38 141.03,-704.62 25.78,-704.62"/>
<text xml:space="preserve" text-anchor="start" x="32.78" y="-715.08" font-family="Arial" font-weight="bold" font-size="14.00">created_at</text>
<polygon fill="none" stroke="#6a7a89" points="141.03,-704.62 141.03,-734.38 251.78,-734.38 251.78,-704.62 141.03,-704.62"/>
<text xml:space="preserve" text-anchor="start" x="148.03" y="-714.62" font-family="Arial" font-size="14.00">DATETIME</text>
<polygon fill="none" stroke="#6a7a89" points="251.78,-704.62 251.78,-734.38 304.03,-734.38 304.03,-704.62 251.78,-704.62"/>
<text xml:space="preserve" text-anchor="start" x="258.78" y="-715.75" font-family="Arial" font-size="10.00">NN DEF</text>
<polygon fill="none" stroke="#6a7a89" points="25.78,-674.88 25.78,-704.62 141.03,-704.62 141.03,-674.88 25.78,-674.88"/>
<text xml:space="preserve" text-anchor="start" x="32.78" y="-685.33" font-family="Arial" font-weight="bold" font-size="14.00">sent_at</text>
<polygon fill="none" stroke="#6a7a89" points="141.03,-674.88 141.03,-704.62 251.78,-704.62 251.78,-674.88 141.03,-674.88"/>
<text xml:space="preserve" text-anchor="start" x="148.03" y="-684.88" font-family="Arial" font-size="14.00">DATETIME</text>
<polygon fill="none" stroke="#6a7a89" points="251.78,-674.88 251.78,-704.62 304.03,-704.62 304.03,-674.88 251.78,-674.88"/>
<text xml:space="preserve" text-anchor="start" x="258.78" y="-686" font-family="Arial" font-size="10.00"> </text>
</g>
<!-- user_feedback_projection -->
<g id="node4" class="node">
<title>user_feedback_projection</title>
<polygon fill="#24415f" stroke="none" points="11.53,-386.5 11.53,-416.25 318.28,-416.25 318.28,-386.5 11.53,-386.5"/>
<polygon fill="none" stroke="#6a7a89" points="11.53,-386.5 11.53,-416.25 318.28,-416.25 318.28,-386.5 11.53,-386.5"/>
<text xml:space="preserve" text-anchor="start" x="81.28" y="-396.95" font-family="Arial" font-weight="bold" font-size="14.00" fill="white">user_feedback_projection</text>
<polygon fill="none" stroke="#6a7a89" points="11.53,-356.75 11.53,-386.5 155.28,-386.5 155.28,-356.75 11.53,-356.75"/>
<text xml:space="preserve" text-anchor="start" x="18.53" y="-367.2" font-family="Arial" font-weight="bold" font-size="14.00">feedback_id</text>
<polygon fill="none" stroke="#6a7a89" points="155.28,-356.75 155.28,-386.5 266.03,-386.5 266.03,-356.75 155.28,-356.75"/>
<text xml:space="preserve" text-anchor="start" x="162.28" y="-366.75" font-family="Arial" font-size="14.00">BIGINT</text>
<polygon fill="none" stroke="#6a7a89" points="266.03,-356.75 266.03,-386.5 318.28,-386.5 318.28,-356.75 266.03,-356.75"/>
<text xml:space="preserve" text-anchor="start" x="273.03" y="-367.88" font-family="Arial" font-size="10.00">PK</text>
<polygon fill="none" stroke="#6a7a89" points="11.53,-327 11.53,-356.75 155.28,-356.75 155.28,-327 11.53,-327"/>
<text xml:space="preserve" text-anchor="start" x="18.53" y="-337.45" font-family="Arial" font-weight="bold" font-size="14.00">user_id</text>
<polygon fill="none" stroke="#6a7a89" points="155.28,-327 155.28,-356.75 266.03,-356.75 266.03,-327 155.28,-327"/>
<text xml:space="preserve" text-anchor="start" x="162.28" y="-337" font-family="Arial" font-size="14.00">BIGINT</text>
<polygon fill="none" stroke="#6a7a89" points="266.03,-327 266.03,-356.75 318.28,-356.75 318.28,-327 266.03,-327"/>
<text xml:space="preserve" text-anchor="start" x="273.03" y="-338.12" font-family="Arial" font-size="10.00">NN</text>
<polygon fill="none" stroke="#6a7a89" points="11.53,-297.25 11.53,-327 155.28,-327 155.28,-297.25 11.53,-297.25"/>
<text xml:space="preserve" text-anchor="start" x="18.53" y="-307.7" font-family="Arial" font-weight="bold" font-size="14.00">title</text>
<polygon fill="none" stroke="#6a7a89" points="155.28,-297.25 155.28,-327 266.03,-327 266.03,-297.25 155.28,-297.25"/>
<text xml:space="preserve" text-anchor="start" x="162.28" y="-307.25" font-family="Arial" font-size="14.00">VARCHAR(200)</text>
<polygon fill="none" stroke="#6a7a89" points="266.03,-297.25 266.03,-327 318.28,-327 318.28,-297.25 266.03,-297.25"/>
<text xml:space="preserve" text-anchor="start" x="273.03" y="-308.38" font-family="Arial" font-size="10.00">NN</text>
<polygon fill="none" stroke="#6a7a89" points="11.53,-267.5 11.53,-297.25 155.28,-297.25 155.28,-267.5 11.53,-267.5"/>
<text xml:space="preserve" text-anchor="start" x="18.53" y="-277.95" font-family="Arial" font-weight="bold" font-size="14.00">category</text>
<polygon fill="none" stroke="#6a7a89" points="155.28,-267.5 155.28,-297.25 266.03,-297.25 266.03,-267.5 155.28,-267.5"/>
<text xml:space="preserve" text-anchor="start" x="162.28" y="-277.5" font-family="Arial" font-size="14.00">VARCHAR(30)</text>
<polygon fill="none" stroke="#6a7a89" points="266.03,-267.5 266.03,-297.25 318.28,-297.25 318.28,-267.5 266.03,-267.5"/>
<text xml:space="preserve" text-anchor="start" x="273.03" y="-278.62" font-family="Arial" font-size="10.00">NN</text>
<polygon fill="none" stroke="#6a7a89" points="11.53,-237.75 11.53,-267.5 155.28,-267.5 155.28,-237.75 11.53,-237.75"/>
<text xml:space="preserve" text-anchor="start" x="18.53" y="-248.2" font-family="Arial" font-weight="bold" font-size="14.00">status</text>
<polygon fill="none" stroke="#6a7a89" points="155.28,-237.75 155.28,-267.5 266.03,-267.5 266.03,-237.75 155.28,-237.75"/>
<text xml:space="preserve" text-anchor="start" x="162.28" y="-247.75" font-family="Arial" font-size="14.00">VARCHAR(30)</text>
<polygon fill="none" stroke="#6a7a89" points="266.03,-237.75 266.03,-267.5 318.28,-267.5 318.28,-237.75 266.03,-237.75"/>
<text xml:space="preserve" text-anchor="start" x="273.03" y="-248.88" font-family="Arial" font-size="10.00">NN</text>
<polygon fill="none" stroke="#6a7a89" points="11.53,-208 11.53,-237.75 155.28,-237.75 155.28,-208 11.53,-208"/>
<text xml:space="preserve" text-anchor="start" x="18.53" y="-218.45" font-family="Arial" font-weight="bold" font-size="14.00">source_message_id</text>
<polygon fill="none" stroke="#6a7a89" points="155.28,-208 155.28,-237.75 266.03,-237.75 266.03,-208 155.28,-208"/>
<text xml:space="preserve" text-anchor="start" x="162.28" y="-218" font-family="Arial" font-size="14.00">VARCHAR(64)</text>
<polygon fill="none" stroke="#6a7a89" points="266.03,-208 266.03,-237.75 318.28,-237.75 318.28,-208 266.03,-208"/>
<text xml:space="preserve" text-anchor="start" x="273.03" y="-219.12" font-family="Arial" font-size="10.00"> </text>
<polygon fill="none" stroke="#6a7a89" points="11.53,-178.25 11.53,-208 155.28,-208 155.28,-178.25 11.53,-178.25"/>
<text xml:space="preserve" text-anchor="start" x="18.53" y="-188.7" font-family="Arial" font-weight="bold" font-size="14.00">created_at</text>
<polygon fill="none" stroke="#6a7a89" points="155.28,-178.25 155.28,-208 266.03,-208 266.03,-178.25 155.28,-178.25"/>
<text xml:space="preserve" text-anchor="start" x="162.28" y="-188.25" font-family="Arial" font-size="14.00">DATETIME</text>
<polygon fill="none" stroke="#6a7a89" points="266.03,-178.25 266.03,-208 318.28,-208 318.28,-178.25 266.03,-178.25"/>
<text xml:space="preserve" text-anchor="start" x="273.03" y="-189.38" font-family="Arial" font-size="10.00">NN DEF</text>
<polygon fill="none" stroke="#6a7a89" points="11.53,-148.5 11.53,-178.25 155.28,-178.25 155.28,-148.5 11.53,-148.5"/>
<text xml:space="preserve" text-anchor="start" x="18.53" y="-158.95" font-family="Arial" font-weight="bold" font-size="14.00">updated_at</text>
<polygon fill="none" stroke="#6a7a89" points="155.28,-148.5 155.28,-178.25 266.03,-178.25 266.03,-148.5 155.28,-148.5"/>
<text xml:space="preserve" text-anchor="start" x="162.28" y="-158.5" font-family="Arial" font-size="14.00">DATETIME</text>
<polygon fill="none" stroke="#6a7a89" points="266.03,-148.5 266.03,-178.25 318.28,-178.25 318.28,-148.5 266.03,-148.5"/>
<text xml:space="preserve" text-anchor="start" x="273.03" y="-159.62" font-family="Arial" font-size="10.00">NN DEF</text>
</g>
<!-- user_feedback_projection&#45;&gt;sys_user -->
<g id="edge1" class="edge">
<title>user_feedback_projection:user_id&#45;&gt;sys_user:id</title>
<path fill="none" stroke="#4f6f52" stroke-dasharray="5,2" d="M10.53,-341.88C-6,-341.88 -0.23,-404.64 11.53,-416.25 35.8,-440.19 284.7,-422.04 318.28,-416.25 412.36,-400.02 427.59,-345.45 518.35,-342.27"/>
<polygon fill="#4f6f52" stroke="#4f6f52" points="518.31,-344.72 525.27,-342.15 518.23,-339.82 518.31,-344.72"/>
<text xml:space="preserve" text-anchor="middle" x="422.53" y="-410.13" font-family="Arial" font-size="10.00">logical user reference; no DB FK</text>
</g>
</g>
</svg>
